<?xml version="1.0" encoding="UTF-8"?>
<svg version="1.1" xmlns="http://www.w3.org/2000/svg" width="48" height="48">
<path d="M0 0 C15.84 0 31.68 0 48 0 C48 15.84 48 31.68 48 48 C32.16 48 16.32 48 0 48 C0 32.16 0 16.32 0 0 Z " fill="#F8FBFC" transform="translate(0,0)"/>
<path d="M0 0 C-1.17297764 24.87947303 -1.17297764 24.87947303 -7.3671875 31.625 C-10.22650282 34.03284448 -12.23777069 35 -16 35 C-15.54738642 33.56068883 -15.08767021 32.12361001 -14.625 30.6875 C-14.36976562 29.88699219 -14.11453125 29.08648437 -13.8515625 28.26171875 C-13 26 -13 26 -11 23 C-10.39855234 21.13252618 -10.39855234 21.13252618 -10 19.0625 C-9.83242188 18.27875 -9.66484375 17.495 -9.4921875 16.6875 C-9.13508988 14.73763362 -8.83513839 12.77702662 -8.5703125 10.8125 C-8.42335938 9.74 -8.27640625 8.6675 -8.125 7.5625 C-8.00382812 6.55316406 -7.88265625 5.54382813 -7.7578125 4.50390625 C-7 2 -7 2 -5.1171875 0.65234375 C-3 0 -3 0 0 0 Z " fill="#13A0DE" transform="translate(42,6)"/>
<path d="M0 0 C0 2.97 0 5.94 0 9 C0.66 9.33 1.32 9.66 2 10 C1.125 14.75 1.125 14.75 0 17 C-1.98 16.67 -3.96 16.34 -6 16 C-6.33 15.01 -6.66 14.02 -7 13 C-9.31 13 -11.62 13 -14 13 C-14 12.01 -14 11.02 -14 10 C-15.175625 10.0928125 -15.175625 10.0928125 -16.375 10.1875 C-17.674375 10.0946875 -17.674375 10.0946875 -19 10 C-19.66 9.01 -20.32 8.02 -21 7 C-20 6 -20 6 -17.93359375 5.90234375 C-16.69802734 5.91974609 -16.69802734 5.91974609 -15.4375 5.9375 C-14.61121094 5.94652344 -13.78492188 5.95554687 -12.93359375 5.96484375 C-12.29550781 5.97644531 -11.65742188 5.98804688 -11 6 C-11.33 5.34 -11.66 4.68 -12 4 C-10.56570999 3.32645501 -9.12742943 2.66140299 -7.6875 2 C-6.88699219 1.62875 -6.08648437 1.2575 -5.26171875 0.875 C-3 0 -3 0 0 0 Z " fill="#4A4B4B" transform="translate(24,23)"/>
<path d="M0 0 C-0.17283361 5.27142516 -0.17283361 5.27142516 -1 8 C-4.01876384 10.26407288 -5.85374534 11.02729178 -9.625 10.9375 C-12.47402389 9.8128853 -13.90549882 8.1961331 -16 6 C-14.23002526 5.18563132 -12.45898848 4.3735706 -10.6875 3.5625 C-9.70136719 3.11003906 -8.71523438 2.65757813 -7.69921875 2.19140625 C-2.73442623 0 -2.73442623 0 0 0 Z " fill="#505152" transform="translate(26,12)"/>
<path d="M0 0 C1.85772162 0.08984301 3.71247985 0.24611861 5.5625 0.4375 C7.08037109 0.59025391 7.08037109 0.59025391 8.62890625 0.74609375 C9.80259766 0.87177734 9.80259766 0.87177734 11 1 C10.79375 1.61875 10.5875 2.2375 10.375 2.875 C10.25125 3.57625 10.1275 4.2775 10 5 C10.66 5.66 11.32 6.32 12 7 C10.02 7 8.04 7 6 7 C6 6.01 6 5.02 6 4 C4.824375 4.0928125 4.824375 4.0928125 3.625 4.1875 C2.75875 4.125625 1.8925 4.06375 1 4 C0.34 3.01 -0.32 2.02 -1 1 C-0.67 0.67 -0.34 0.34 0 0 Z " fill="#DFDFDF" transform="translate(4,29)"/>
<path d="M0 0 C1.4540625 0.0309375 1.4540625 0.0309375 2.9375 0.0625 C2.9375 1.0525 2.9375 2.0425 2.9375 3.0625 C1.2875 3.3925 -0.3625 3.7225 -2.0625 4.0625 C-2.7225 3.0725 -3.3825 2.0825 -4.0625 1.0625 C-3.0625 0.0625 -3.0625 0.0625 0 0 Z " fill="#5C5D5E" transform="translate(7.0625,28.9375)"/>
</svg>
