<?xml version="1.0" encoding="UTF-8"?>
<svg version="1.1" xmlns="http://www.w3.org/2000/svg" width="180" height="180">
<path d="M0 0 C59.4 0 118.8 0 180 0 C180 59.4 180 118.8 180 180 C120.6 180 61.2 180 0 180 C0 120.6 0 61.2 0 0 Z " transform="translate(0,0)"/>
<path d="M0 0 C-0.57044012 6.82796775 -1.5648039 13.46578575 -2.875 20.1875 C-4.57664031 29.16949765 -5.89559808 38.15597271 -6.96044922 47.23510742 C-7.44919413 51.28922108 -7.98620218 55.22630629 -9.0234375 59.1796875 C-10.01300071 63.05085876 -10.55380186 66.78202371 -11 70.75 C-11.1662837 72.15384645 -11.33426795 73.55749246 -11.50390625 74.9609375 C-11.58656738 75.64510742 -11.66922852 76.32927734 -11.75439453 77.03417969 C-14.04799882 95.39213369 -19.44530103 111.34310436 -34.015625 123.7109375 C-42.6954712 130.04401047 -53.24356269 133.92727908 -64 133 C-61.85955669 122.74840312 -58.33850743 106.75721329 -49.56225586 100.17041016 C-40.7238492 92.68366073 -40.40569541 77.83610867 -38.9375 67.0625 C-38.43789162 63.57320775 -37.92756053 60.08550241 -37.41796875 56.59765625 C-37.2962027 55.75361237 -37.17443665 54.90956848 -37.04898071 54.03994751 C-36.00241815 46.83945155 -34.73445359 39.69839944 -33.2421875 32.57641602 C-32.48449743 28.89715756 -31.9025146 25.34844858 -31.69921875 21.59375 C-31.14689085 12.02377827 -31.14689085 12.02377827 -27.92578125 9.1484375 C-24.98830812 7.75045759 -22.13507921 6.86817578 -19 6 C-17.09774785 5.33769362 -15.2102984 4.64097292 -13.32128906 3.94189453 C-11.51256876 3.27757191 -9.69197436 2.64585312 -7.87109375 2.015625 C-2.17307692 0 -2.17307692 0 0 0 Z " fill="#099DDD" transform="translate(161,20)"/>
<path d="M0 0 C-0.49018006 2.97199262 -0.98894983 5.94007098 -1.53515625 8.90234375 C-4.4224512 23.29078986 -4.4224512 23.29078986 -1.2421875 36.85546875 C1.04580849 39.04381335 2.19240169 39.75194031 5.25 40.3125 C6.4875 40.539375 7.725 40.76625 9 41 C6.71684057 50.680596 2.93892642 59.89526843 -1 69 C-10.19428283 68.48920651 -17.21987159 65.32622653 -23.5 58.5 C-26.2923338 55.24990656 -27.33769465 53.15576337 -29 49 C-37.25 49 -45.5 49 -54 49 C-50.98649331 45.98649331 -49.53176607 45.25937838 -45.625 43.9375 C-42.82458142 42.97702586 -40.06532791 42.02749136 -37.3359375 40.87890625 C-35 40 -35 40 -32 40 C-31.92319992 34.64883971 -31.92319992 34.64883971 -34.58251953 30.24707031 C-36.68419521 28.59608108 -38.82947973 27.09333954 -41.0625 25.625 C-42.55698404 24.60158952 -44.04807734 23.57320363 -45.53515625 22.5390625 C-46.199104 22.09771973 -46.86305176 21.65637695 -47.54711914 21.20166016 C-48.02656982 20.8051123 -48.50602051 20.40856445 -49 20 C-49 19.34 -49 18.68 -49 18 C-34.93890555 12.23725637 -34.93890555 12.23725637 -27.8125 9.9375 C-20.96250948 7.72186964 -14.3669887 4.95120772 -7.796875 2.015625 C-4.98410485 0.76287863 -3.12499418 0 0 0 Z " fill="#424445" transform="translate(90,84)"/>
<path d="M0 0 C-0.31849129 3.33492361 -0.65661619 6.66755251 -1 10 C-1.08717285 10.89541504 -1.1743457 11.79083008 -1.26416016 12.71337891 C-3.0204793 29.14259259 -3.0204793 29.14259259 -7.40625 33.2578125 C-10.57942518 34.54584866 -13.65742028 35.26009637 -17 36 C-19.70553298 37.03540093 -22.34719733 38.21202533 -25 39.375 C-31.99129285 42.42021084 -31.99129285 42.42021084 -36 41 C-38.30206885 39.34296912 -40.49443392 37.66495065 -42.6875 35.875 C-43.93344998 34.87612272 -45.17954394 33.87742502 -46.42578125 32.87890625 C-47.03244629 32.38922363 -47.63911133 31.89954102 -48.26416016 31.39501953 C-50.61348487 29.5069687 -52.99187746 27.65762032 -55.375 25.8125 C-56.08398438 25.26207031 -56.79296875 24.71164063 -57.5234375 24.14453125 C-58.01070312 23.76683594 -58.49796875 23.38914062 -59 23 C-55.87360109 19.53016635 -52.21219792 18.48093125 -47.875 17.0625 C-41.08781691 14.78675302 -41.08781691 14.78675302 -34.5 12 C-29.55888242 9.68385114 -24.40059136 7.9990332 -19.24731445 6.22412109 C-14.61838047 4.61580192 -10.15263917 2.85506944 -5.76171875 0.6640625 C-4 0 -4 0 0 0 Z " fill="#434445" transform="translate(96,46)"/>
<path d="M0 0 C1.79856198 1.28896942 3.54644864 2.65034558 5.25 4.0625 C6.58804687 5.16271484 6.58804687 5.16271484 7.953125 6.28515625 C8.62859375 6.85105469 9.3040625 7.41695312 10 8 C8.2817199 11.4365602 4.26569828 11.96754217 0.8125 13.1875 C0.05646484 13.47302734 -0.69957031 13.75855469 -1.47851562 14.05273438 C-6.02127271 15.67205195 -9.2464382 16.50320678 -14 15 C-16.9921875 13.44140625 -16.9921875 13.44140625 -19.875 11.5625 C-21.32519531 10.63630859 -21.32519531 10.63630859 -22.8046875 9.69140625 C-23.52914063 9.13324219 -24.25359375 8.57507813 -25 8 C-25 7.34 -25 6.68 -25 6 C-23.7315625 5.61908203 -23.7315625 5.61908203 -22.4375 5.23046875 C-14.85525909 2.94501809 -14.85525909 2.94501809 -7.4375 0.1875 C-3.23036601 -1.26587356 -3.23036601 -1.26587356 0 0 Z " fill="#464749" transform="translate(34,107)"/>
<path d="M0 0 C1.79563029 1.2358589 3.45252113 2.40877879 4.9921875 3.953125 C4.9921875 4.613125 4.9921875 5.273125 4.9921875 5.953125 C2.45367288 6.79728663 -0.08792104 7.62859799 -2.6328125 8.453125 C-3.34566406 8.69160156 -4.05851562 8.93007812 -4.79296875 9.17578125 C-14.34172784 12.24189655 -14.34172784 12.24189655 -19.125 9.9296875 C-19.70507812 9.48367187 -20.28515625 9.03765625 -20.8828125 8.578125 C-21.77613281 7.91683594 -21.77613281 7.91683594 -22.6875 7.2421875 C-23.12320312 6.81679687 -23.55890625 6.39140625 -24.0078125 5.953125 C-24.0078125 5.293125 -24.0078125 4.633125 -24.0078125 3.953125 C-22.25874719 3.30476458 -20.50852031 2.65953716 -18.7578125 2.015625 C-17.78328125 1.65597656 -16.80875 1.29632813 -15.8046875 0.92578125 C-10.66277674 -0.86239721 -5.14513032 -2.68267495 0 0 Z " fill="#15A0DE" transform="translate(40.0078125,79.046875)"/>
<path d="M0 0 C-0.66 0.66 -1.32 1.32 -2 2 C-0.18884044 3.81115956 2.61278227 3.38199448 5.0625 3.5625 C6.16722656 3.64628906 7.27195312 3.73007813 8.41015625 3.81640625 C9.26480469 3.87699219 10.11945312 3.93757812 11 4 C10.34 5.32 9.68 6.64 9 8 C9 7.34 9 6.68 9 6 C0.75 6 -7.5 6 -16 6 C-12.98608248 2.98608248 -11.34709645 2.1451689 -7.4375 0.75 C-6.46683594 0.39421875 -5.49617188 0.0384375 -4.49609375 -0.328125 C-2 -1 -2 -1 0 0 Z " fill="#717375" transform="translate(52,127)"/>
<path d="M0 0 C0.66 0.99 1.32 1.98 2 3 C1.01 3.33 0.02 3.66 -1 4 C-1.99 3.34 -2.98 2.68 -4 2 C-6.62531524 1.83286431 -6.62531524 1.83286431 -9 2 C-9 2.99 -9 3.98 -9 5 C-12.3 5 -15.6 5 -19 5 C-16.01243632 3.00829088 -13.44575614 1.97092021 -10.0625 0.8125 C-9.02222656 0.44769531 -7.98195313 0.08289063 -6.91015625 -0.29296875 C-4.01467994 -0.99643346 -2.68300036 -1.23045878 0 0 Z " fill="#646568" transform="translate(34,107)"/>
<path d="M0 0 C-0.66 1.65 -1.32 3.3 -2 5 C-5.37462715 4.45276317 -7.08235 3.9451 -10 2 C-8.71211992 1.46987262 -7.41953322 0.9511671 -6.125 0.4375 C-5.40570313 0.14746094 -4.68640625 -0.14257812 -3.9453125 -0.44140625 C-2 -1 -2 -1 0 0 Z " fill="#5D5E61" transform="translate(81,52)"/>
<path d="M0 0 C0.66 0.33 1.32 0.66 2 1 C1.01 1.66 0.02 2.32 -1 3 C-1.25030977 5.58380177 -1.25030977 5.58380177 -1 8 C-3 7 -5 6 -7 5 C-7 4.34 -7 3.68 -7 3 C-4.69631264 1.93347808 -2.35981813 0.93578995 0 0 Z " fill="#66676A" transform="translate(48,99)"/>
<path d="M0 0 C0.66 1.32 1.32 2.64 2 4 C1.34 4 0.68 4 0 4 C-0.33 4.66 -0.66 5.32 -1 6 C-1.5775 5.525625 -2.155 5.05125 -2.75 4.5625 C-4.92582084 3.0515133 -6.42602448 2.45963849 -9 2 C-5.62902617 0.50178941 -3.79557881 0 0 0 Z " fill="#25A8E1" transform="translate(141,28)"/>
<path d="M0 0 C-0.33 3.3 -0.66 6.6 -1 10 C-1.33 10 -1.66 10 -2 10 C-2.0825 9.236875 -2.165 8.47375 -2.25 7.6875 C-3.14615794 4.47626739 -4.21611025 3.70625501 -7 2 C-4.35261084 0.5393715 -3.10551666 0 0 0 Z " fill="#41B2E4" transform="translate(161,20)"/>
<path d="M0 0 C-0.99 0.33 -1.98 0.66 -3 1 C-3.33 1.99 -3.66 2.98 -4 4 C-6.31 4 -8.62 4 -11 4 C-9.71264403 1.42528807 -8.71510189 1.29583343 -6.0625 0.3125 C-5.35222656 0.04050781 -4.64195313 -0.23148438 -3.91015625 -0.51171875 C-2 -1 -2 -1 0 0 Z " fill="#6A6B6E" transform="translate(55,62)"/>
<path d="M0 0 C-0.33 1.98 -0.66 3.96 -1 6 C-1.33 5.34 -1.66 4.68 -2 4 C-5.02934491 3.34227572 -5.02934491 3.34227572 -8 3 C-3.5 0 -3.5 0 0 0 Z " fill="#797B7D" transform="translate(90,84)"/>
<path d="M0 0 C0 0.99 0 1.98 0 3 C-3.3 3 -6.6 3 -10 3 C-6.41600853 0.61067235 -4.26804999 0 0 0 Z " fill="#5B5D5F" transform="translate(25,109)"/>
<path d="M0 0 C0.66 0.33 1.32 0.66 2 1 C-0.1875 3.0625 -0.1875 3.0625 -3 5 C-5.8125 4.75 -5.8125 4.75 -8 4 C-5.31143836 2.20762558 -3.0466145 1.01553817 0 0 Z " fill="#6D6E71" transform="translate(92,46)"/>
</svg>
