<?xml version="1.0" encoding="UTF-8"?>
<svg version="1.1" xmlns="http://www.w3.org/2000/svg" width="512" height="512">
<path d="M0 0 C168.96 0 337.92 0 512 0 C512 168.96 512 337.92 512 512 C343.04 512 174.08 512 0 512 C0 343.04 0 174.08 0 0 Z " fill="#FEFEFE" transform="translate(0,0)"/>
<path d="M0 0 C-1.02492143 7.42803882 -2.24890382 14.82357522 -3.45117188 22.22460938 C-4.33068237 27.67891209 -5.16871172 33.13502111 -5.93334961 38.60668945 C-6.89717681 45.38200057 -7.97537969 52.13284161 -9.1015625 58.8828125 C-9.50981587 61.34975036 -9.91793187 63.81671095 -10.32592773 66.28369141 C-10.53788788 67.56254211 -10.74984802 68.84139282 -10.9682312 70.15899658 C-15.41634282 97.00629938 -19.65909744 123.88053871 -23.74464417 150.78564453 C-24.80005337 157.72437694 -25.88564342 164.6579907 -26.98562622 171.58978271 C-27.80207469 176.7360878 -28.59910653 181.88499166 -29.38134766 187.03662109 C-31.22310171 199.16132812 -33.15922817 211.26991274 -35.125 223.375 C-35.25315094 224.16436951 -35.38130188 224.95373901 -35.51333618 225.76702881 C-36.23330834 230.1986662 -36.95729228 234.62962672 -37.68389893 239.06018066 C-37.97369695 240.83858591 -38.25741631 242.61797892 -38.54052734 244.39746094 C-41.70955851 264.08014006 -46.76096125 282.483765 -56.03466797 300.15917969 C-56.8792035 301.76964958 -57.70847459 303.38810544 -58.53515625 305.0078125 C-65.06478472 317.48504128 -73.26749579 327.93830815 -83 338 C-83.7940625 338.83402344 -84.588125 339.66804688 -85.40625 340.52734375 C-89.35803252 344.60082971 -89.35803252 344.60082971 -91 346 C-91.66 346 -92.32 346 -93 346 C-93 346.66 -93 347.32 -93 348 C-95.00674709 349.64077497 -97.00465584 351.14287442 -99.125 352.625 C-100.07463623 353.29269409 -100.07463623 353.29269409 -101.04345703 353.97387695 C-125.36648034 370.82053645 -153.13804663 380.87973021 -183 380 C-182.33792041 374.22728801 -180.35116074 369.10526793 -178.32421875 363.703125 C-177.95778763 362.71431335 -177.59135651 361.72550171 -177.21382141 360.70672607 C-176.04338441 357.55259841 -174.86540028 354.40134702 -173.6875 351.25 C-172.90643735 349.14600541 -172.12583367 347.04184038 -171.34570312 344.9375 C-170.58895294 342.9008888 -169.83180416 340.86442566 -169.07421875 338.828125 C-168.7261467 337.89236633 -168.37807465 336.95660767 -168.01945496 335.99249268 C-166.03655418 330.68922393 -163.98877027 325.41806541 -161.86299133 320.17036438 C-160.6514853 317.12350929 -159.57255956 314.03560278 -158.5 310.9375 C-158.06945312 309.74898438 -157.63890625 308.56046875 -157.1953125 307.3359375 C-156.48530011 305.35439966 -155.80245919 303.36222538 -155.1796875 301.3515625 C-153.00008194 295.15132534 -149.4649963 293.03696047 -143.88671875 289.8046875 C-136.07380224 284.92029315 -130.87896437 278.23429278 -127 270 C-126.58105469 269.16855469 -126.16210938 268.33710938 -125.73046875 267.48046875 C-120.24967122 256.17114937 -117.5813615 244.08933759 -115.5625 231.75 C-115.35568604 230.52055664 -115.14887207 229.29111328 -114.93579102 228.02441406 C-112.96546396 216.14443529 -111.22993647 204.23010984 -109.50523376 192.31245422 C-108.30925421 184.0534267 -107.06150005 175.80413384 -105.75 167.5625 C-105.58685303 166.52641602 -105.42370605 165.49033203 -105.25561523 164.42285156 C-105.02853882 163.00891113 -105.02853882 163.00891113 -104.796875 161.56640625 C-104.66635742 160.75115479 -104.53583984 159.93590332 -104.40136719 159.09594727 C-104 157 -104 157 -103 154 C-102.66323826 151.58349038 -102.35867755 149.1731474 -102.07983398 146.75 C-101.12553311 138.80578505 -99.96408455 130.90473288 -98.72265625 123 C-98.50835806 121.62632409 -98.29420445 120.25262561 -98.08018494 118.87890625 C-97.63552118 116.02839614 -97.18913788 113.17816247 -96.74145508 110.328125 C-96.17561486 106.72497495 -95.61419796 103.12115182 -95.05397224 99.51712513 C-91.11937947 74.22708302 -91.11937947 74.22708302 -89.27734375 64.85546875 C-88.36722254 60.21407357 -87.69405916 55.6318965 -87.21875 50.92578125 C-87.03699219 49.27739258 -87.03699219 49.27739258 -86.8515625 47.59570312 C-86.61296266 45.36744575 -86.41103158 43.13501643 -86.2421875 40.90039062 C-85.84266874 37.60436081 -85.40424789 35.01195215 -84 32 C-80.60383546 29.41512561 -77.05446353 28.23091201 -73 27 C-71.61012559 26.46516069 -70.22296313 25.92316688 -68.83984375 25.37109375 C-65.47458105 24.15055434 -62.09262873 22.97678336 -58.7097168 21.80615234 C-52.73508833 19.73694048 -46.89105872 17.60903616 -41.16015625 14.92578125 C-38.52816091 13.79778325 -35.85160566 12.936546 -33.125 12.0625 C-28.1040471 10.44407102 -23.44108878 8.41223943 -18.67578125 6.1640625 C-15.25592019 4.67629813 -11.78879719 3.64180221 -8.19140625 2.67578125 C-5.95694562 2.05251538 -5.95694562 2.05251538 -3.83984375 0.91796875 C-2 0 -2 0 0 0 Z " fill="#069BDC" transform="translate(458,56)"/>
<path d="M0 0 C-0.60040459 8.03338202 -1.71639182 15.90120853 -3.06640625 23.83984375 C-3.47403262 26.31042731 -3.88090948 28.78113463 -4.28710938 31.25195312 C-4.92052446 35.08344312 -5.55849012 38.91392625 -6.2097168 42.74243164 C-12.6402449 76.05198796 -12.6402449 76.05198796 -2.46875 107.35546875 C4.48169815 115.13775245 14.98237534 117.19218264 24.91015625 117.88671875 C25.59980469 117.92410156 26.28945313 117.96148437 27 118 C25.13515595 125.94913322 22.221066 133.63724294 19.12890625 141.1796875 C17.71088802 144.72227975 16.38888995 148.29730932 15.0625 151.875 C12.90958847 157.66538011 10.62463581 163.37946722 8.21875 169.0703125 C4.53061472 177.93602231 1.24163262 186.96326995 -2 196 C-23.13282314 195.91712618 -44.73313272 185.13687868 -60 171 C-60.84949219 170.24203125 -61.69898438 169.4840625 -62.57421875 168.703125 C-71.71117526 160.13985182 -77.41981443 150.16037113 -83 139 C-117.65 138.505 -117.65 138.505 -153 138 C-151.66963457 135.33926913 -150.53375306 135.24253175 -147.77832031 134.19995117 C-146.87938049 133.85586716 -145.98044067 133.51178314 -145.05426025 133.15727234 C-144.07213562 132.78955215 -143.09001099 132.42183197 -142.078125 132.04296875 C-141.06715759 131.6581282 -140.05619019 131.27328766 -139.0145874 130.87678528 C-135.7621925 129.64040313 -132.50620646 128.41380417 -129.25 127.1875 C-127.10001368 126.3723953 -124.95027103 125.55664759 -122.80078125 124.74023438 C-118.68938192 123.1795046 -114.57673416 121.62214637 -110.46289062 120.06787109 C-104.29871635 117.73738624 -98.1456831 115.37885257 -92 113 C-90.27577348 100.73009598 -90.27577348 100.73009598 -93.05029297 89.05566406 C-95.88819086 85.7411961 -99.4451101 83.46253887 -103.13574219 81.18896484 C-105.58925384 79.62419248 -107.8054771 77.83284402 -110.06079102 75.99853516 C-115.99190344 71.17580954 -122.1208316 66.58740925 -128.1875 61.9375 C-128.9187207 61.37691895 -129.64994141 60.81633789 -130.40332031 60.23876953 C-131.0887793 59.71524902 -131.77423828 59.19172852 -132.48046875 58.65234375 C-133.08785889 58.18820068 -133.69524902 57.72405762 -134.32104492 57.24584961 C-135.84540306 56.11471691 -137.42060965 55.0529269 -139 54 C-139 53.34 -139 52.68 -139 52 C-115.0644858 42.79136571 -91.0677315 33.75085535 -67.04838562 24.76342773 C-59.19223774 21.82304232 -51.339262 18.87426709 -43.48743439 15.92237091 C-39.58898589 14.45692064 -35.69020283 12.99236064 -31.79143524 11.52775955 C-28.6156759 10.33466688 -25.4401394 9.14098767 -22.26507568 7.94604492 C-18.73065899 6.6161894 -15.19549434 5.28834121 -11.66015625 3.9609375 C-10.59278732 3.55873993 -9.5254184 3.15654236 -8.42570496 2.74215698 C-7.45772476 2.37913483 -6.48974457 2.01611267 -5.49243164 1.64208984 C-4.22067833 1.16393326 -4.22067833 1.16393326 -2.92323303 0.67611694 C-1 0 -1 0 0 0 Z " fill="#404243" transform="translate(255,239)"/>
<path d="M0 0 C-1.63863339 14.68232568 -4.06409231 29.23463423 -6.4375 43.8125 C-7.03405035 47.49336836 -7.62981103 51.17435802 -8.22354126 54.85568237 C-8.6105937 57.23822224 -9.00322852 59.61986259 -9.40170288 62.0005188 C-10.27909274 67.27833042 -11.09137394 72.52981042 -11.63720703 77.85302734 C-12.9421335 89.90876928 -12.9421335 89.90876928 -15.87329102 92.93237305 C-18.27451509 94.05865221 -20.39092301 94.55698853 -23 95 C-24.44346034 95.49933468 -25.87880447 96.02279952 -27.3046875 96.5703125 C-28.82712389 97.09147537 -30.35061487 97.60956499 -31.875 98.125 C-40.35050711 101.04440489 -48.77793193 104.08332778 -57.1875 107.1875 C-58.32106934 107.60338379 -59.45463867 108.01926758 -60.62255859 108.44775391 C-66.15909491 110.4978064 -71.58381991 112.66208785 -76.95581055 115.10913086 C-80.18157973 116.51493902 -83.46685011 117.59525385 -86.8125 118.6875 C-87.45380859 118.89955078 -88.09511719 119.11160156 -88.75585938 119.33007812 C-90.49911445 119.90154851 -92.24930029 120.45175993 -94 121 C-94.73863281 121.26941406 -95.47726563 121.53882813 -96.23828125 121.81640625 C-98 122 -98 122 -99.6484375 120.953125 C-100.21820313 120.39109375 -100.78796875 119.8290625 -101.375 119.25 C-104.93984909 115.92193055 -108.64638646 112.85930877 -112.5 109.875 C-117.66097344 105.85851021 -122.7539625 101.7696288 -127.8125 97.625 C-134.09644222 92.48477663 -140.49849796 87.52167969 -146.96679688 82.61621094 C-152.0062203 78.7861552 -156.93450731 74.85354965 -161.80078125 70.8046875 C-163.97403478 68.97662244 -163.97403478 68.97662244 -166.29296875 67.3828125 C-166.85628906 66.92648438 -167.41960937 66.47015625 -168 66 C-168 65.34 -168 64.68 -168 64 C-165.92669208 63.19606427 -163.85338396 62.39212906 -161.78007507 61.5881958 C-159.89132893 60.85582252 -158.00258597 60.12344102 -156.11384583 59.39105225 C-150.69852905 57.29119288 -145.2831516 55.19149018 -139.86767578 53.09204102 C-128.74002877 48.77794107 -117.61306862 44.46209421 -106.48828125 40.140625 C-80.46723113 30.03480349 -54.42363903 19.98949964 -28.34179688 10.04150391 C-24.57434124 8.60390373 -20.81076625 7.15656462 -17.04882812 5.70458984 C-16.07995667 5.33198532 -15.11108521 4.9593808 -14.112854 4.57548523 C-12.25258127 3.8600425 -10.39328194 3.14206216 -8.53509521 2.42121887 C-7.70657043 2.10327866 -6.87804565 1.78533844 -6.02441406 1.45776367 C-5.29353577 1.17551437 -4.56265747 0.89326508 -3.80963135 0.60246277 C-2 0 -2 0 0 0 Z " fill="#404243" transform="translate(273,129)"/>
<path d="M0 0 C2.950897 2.02347223 5.63268155 4.31711133 8.35253906 6.63720703 C11.73067466 9.43162803 15.25476721 12.04225621 18.75 14.6875 C29.31014129 22.68724949 29.31014129 22.68724949 33 26 C33 26.66 33 27.32 33 28 C24.07143861 31.20786637 15.14899406 34.32909991 6.0625 37.06640625 C-0.39770511 39.03578 -6.82079422 41.13683365 -13.125 43.5625 C-13.7142627 43.77229492 -14.30352539 43.98208984 -14.91064453 44.19824219 C-17.03250655 44.96895864 -17.03250655 44.96895864 -19.08032227 46.07128906 C-23.28786326 47.9142948 -25.84796536 48.43676518 -30.22558594 46.77709961 C-33.87319706 44.72694628 -37.34146358 42.51854146 -40.8125 40.1875 C-42.00389024 39.41946286 -43.19724404 38.65446274 -44.39257812 37.89257812 C-46.76010534 36.37807399 -49.11563054 34.84721678 -51.46337891 33.30224609 C-56.89660233 29.74164678 -62.45124029 26.37662681 -68 23 C-67 20 -67 20 -65.09353638 19.02076721 C-64.25845551 18.73749069 -63.42337463 18.45421417 -62.56298828 18.16235352 C-61.61755157 17.83513809 -60.67211487 17.50792267 -59.69802856 17.17079163 C-58.14980911 16.65505836 -58.14980911 16.65505836 -56.5703125 16.12890625 C-55.51020966 15.76530502 -54.45010681 15.4017038 -53.35787964 15.02708435 C-49.95060478 13.86107411 -46.53805278 12.71147462 -43.125 11.5625 C-39.74898456 10.41342869 -36.37409992 9.26107862 -32.99923706 8.10862732 C-30.89758279 7.39235529 -28.7950336 6.67870164 -26.69143677 5.96815491 C-20.86677019 3.99848946 -15.088209 1.94455554 -9.34078979 -0.24134827 C-5.65144421 -1.43706794 -3.6593931 -1.3306884 0 0 Z " fill="#424345" transform="translate(93,303)"/>
<path d="M0 0 C1.16789062 0.7115625 1.16789062 0.7115625 2.359375 1.4375 C3.54273437 2.2109375 3.54273437 2.2109375 4.75 3 C5.54921875 3.515625 6.3484375 4.03125 7.171875 4.5625 C7.77515625 5.036875 8.3784375 5.51125 9 6 C9 6.66 9 7.32 9 8 C9.55429688 8.25652344 10.10859375 8.51304687 10.6796875 8.77734375 C13.33307593 10.17550971 15.68561927 11.81852482 18.125 13.5625 C21.45091748 15.96731666 21.45091748 15.96731666 25 18 C25 18.66 25 19.32 25 20 C23.80890625 20.32871094 22.6178125 20.65742188 21.390625 20.99609375 C9.33646568 24.36285354 -2.59071974 28.05251933 -14.49121094 31.92749023 C-16.71129601 32.65023165 -18.93257242 33.36932846 -21.15527344 34.08398438 C-22.83923991 34.62622967 -24.52073478 35.17643393 -26.19628906 35.74414062 C-29.87060777 36.92863798 -32.34271356 37.32733293 -36 36 C-38.46069406 34.54233712 -40.78210348 33.06317107 -43.125 31.4375 C-43.77863525 30.99148437 -44.43227051 30.54546875 -45.10571289 30.0859375 C-47.07760571 28.7339475 -49.03971297 27.36874777 -51 26 C-51.58346191 25.59668457 -52.16692383 25.19336914 -52.76806641 24.77783203 C-59.55481969 20.07408226 -59.55481969 20.07408226 -62 18 C-62 17.34 -62 16.68 -62 16 C-61.09378906 15.74605469 -60.18757813 15.49210937 -59.25390625 15.23046875 C-52.44553452 13.30683356 -45.68865347 11.30993346 -39 9 C-32.8422104 6.90520055 -26.65259523 4.93907694 -20.42578125 3.05859375 C-18.07946214 2.33356242 -15.74364201 1.57390694 -13.41796875 0.78515625 C-12.26941406 0.40230469 -11.12085938 0.01945313 -9.9375 -0.375 C-8.89464844 -0.73335937 -7.85179687 -1.09171875 -6.77734375 -1.4609375 C-3.53085275 -2.09105812 -2.69535526 -1.80419318 0 0 Z " fill="#099BDB" transform="translate(105,221)"/>
<path d="M0 0 C-0.91858023 6.66212402 -1.99428678 13.29796975 -3.0625 19.9375 C-3.24876953 21.09830078 -3.43503906 22.25910156 -3.62695312 23.45507812 C-4.08410267 26.30347141 -4.54180044 29.15177547 -5 32 C-6.89777953 29.15333071 -7.35804934 27.85888655 -7.9375 24.625 C-9.03059807 19.37484024 -9.03059807 19.37484024 -12 15 C-16.71419726 13.99533501 -21.17906195 13.87947655 -26 14 C-26.33 14.99 -26.66 15.98 -27 17 C-27.66 17 -28.32 17 -29 17 C-29 18.32 -29 19.64 -29 21 C-29 21.66 -29 22.32 -29 23 C-28.34 22.34 -27.68 21.68 -27 21 C-27 21.66 -27 22.32 -27 23 C-26.34 23.33 -25.68 23.66 -25 24 C-25.66 24 -26.32 24 -27 24 C-27 24.66 -27 25.32 -27 26 C-27.99 25.67 -28.98 25.34 -30 25 C-30.99 25.99 -31.98 26.98 -33 28 C-33.66 26.68 -34.32 25.36 -35 24 C-35.99 24.33 -36.98 24.66 -38 25 C-40 23 -40 23 -41 20 C-41.33 20.66 -41.66 21.32 -42 22 C-43.98 22 -45.96 22 -48 22 C-47.01 20.68 -46.02 19.36 -45 18 C-45.66 17.67 -46.32 17.34 -47 17 C-46.27296875 16.76925781 -45.5459375 16.53851563 -44.796875 16.30078125 C-38.4235537 14.23353729 -32.24502256 11.91809611 -26.08203125 9.29296875 C-20.77174209 7.06520486 -15.38358796 5.04253468 -10 3 C-9.16597656 2.67644531 -8.33195312 2.35289063 -7.47265625 2.01953125 C-2.22946009 0 -2.22946009 0 0 0 Z M-6 24 C-5 26 -5 26 -5 26 Z " fill="#14A2E1" transform="translate(458,56)"/>
<path d="M0 0 C0.86625 0.391875 1.7325 0.78375 2.625 1.1875 C1.965 2.8375 1.305 4.4875 0.625 6.1875 C1.615 6.1875 2.605 6.1875 3.625 6.1875 C3.625 6.8475 3.625 7.5075 3.625 8.1875 C7.09 7.6925 7.09 7.6925 10.625 7.1875 C7.41032609 13.86413043 7.41032609 13.86413043 3.4375 15.5 C2.509375 15.726875 1.58125 15.95375 0.625 16.1875 C0.295 16.8475 -0.035 17.5075 -0.375 18.1875 C-2.75 18.3125 -2.75 18.3125 -5.375 18.1875 C-6.70833333 16.85416667 -8.04166667 15.52083333 -9.375 14.1875 C-10.6903341 13.48598848 -12.02617592 12.82224075 -13.375 12.1875 C-14.055625 11.795625 -14.73625 11.40375 -15.4375 11 C-17.52884706 9.87294646 -17.52884706 9.87294646 -20.375 11.1875 C-20.045 9.8675 -19.715 8.5475 -19.375 7.1875 C-20.035 6.8575 -20.695 6.5275 -21.375 6.1875 C-20.57835937 5.93355469 -19.78171875 5.67960937 -18.9609375 5.41796875 C-12.30311641 3.28826264 -12.30311641 3.28826264 -6 0.3125 C-3.375 -0.8125 -3.375 -0.8125 0 0 Z " fill="#0FA0E1" transform="translate(401.375,78.8125)"/>
<path d="M0 0 C0.99 0.33 1.98 0.66 3 1 C1.02 6.28 -0.96 11.56 -3 17 C-3.66 17 -4.32 17 -5 17 C-5.020625 17.825 -5.04125 18.65 -5.0625 19.5 C-6.23272316 23.86883314 -8.35930203 25.91938111 -11.50390625 29.0703125 C-13.40848105 31.11991278 -13.40848105 31.11991278 -13 35 C-16.75 37 -16.75 37 -19 37 C-20.71193325 37.31432217 -22.41995264 37.65024669 -24.125 38 C-25.03507812 38.185625 -25.94515625 38.37125 -26.8828125 38.5625 C-27.58148438 38.706875 -28.28015625 38.85125 -29 39 C-29.33 37.68 -29.66 36.36 -30 35 C-29.14728516 34.36384766 -29.14728516 34.36384766 -28.27734375 33.71484375 C-20.58761414 27.87373027 -14.36200531 22.75031252 -10.3359375 13.8203125 C-9 12 -9 12 -6.49609375 11.58984375 C-5.67238281 11.39519531 -4.84867187 11.20054687 -4 11 C-2.5223281 8.48113268 -2.5223281 8.48113268 -1.6875 5.4375 C-1.36136719 4.42558594 -1.03523438 3.41367187 -0.69921875 2.37109375 C-0.46847656 1.58863281 -0.23773438 0.80617188 0 0 Z " fill="#12A1E1" transform="translate(340,314)"/>
<path d="M0 0 C0 2.31 0 4.62 0 7 C1.32 7 2.64 7 4 7 C4 7.99 4 8.98 4 10 C15.88 10.33 27.76 10.66 40 11 C40 11.33 40 11.66 40 12 C16.9 12 -6.2 12 -30 12 C-28.50842784 9.01685567 -26.3972247 8.79739213 -23.3203125 7.6171875 C-21.58587891 6.95009766 -21.58587891 6.95009766 -19.81640625 6.26953125 C-18.59824219 5.80933594 -17.38007812 5.34914063 -16.125 4.875 C-14.30935547 4.17310547 -14.30935547 4.17310547 -12.45703125 3.45703125 C-3.39618258 0 -3.39618258 0 0 0 Z " fill="#5E5F61" transform="translate(132,365)"/>
<path d="M0 0 C0.10957031 0.75152344 0.21914063 1.50304687 0.33203125 2.27734375 C1.85277868 8.47594583 9.2544865 12.61071375 14.0625 16.4375 C17.91138597 18.48477977 21.72576792 19.27812969 26 20 C23.48666601 22.51333399 21.26042294 23.08572757 17.7578125 23.41796875 C12.23277889 22.5806053 7.90094144 18.57084415 3.58691406 15.21777344 C1.26274956 13.43424535 -1.14859844 11.78411228 -3.5625 10.125 C-5.04590042 9.08937137 -6.52545715 8.04820173 -8 7 C-8.75152344 6.48179687 -9.50304688 5.96359375 -10.27734375 5.4296875 C-10.84582031 4.95789063 -11.41429687 4.48609375 -12 4 C-12 3.34 -12 2.68 -12 2 C-10.37787941 1.47026689 -8.75218416 0.95146893 -7.125 0.4375 C-6.22007813 0.14746094 -5.31515625 -0.14257812 -4.3828125 -0.44140625 C-2 -1 -2 -1 0 0 Z " fill="#1FA5E2" transform="translate(55,235)"/>
<path d="M0 0 C0.66 0.99 1.32 1.98 2 3 C2.66 2.67 3.32 2.34 4 2 C7.00607143 8.01214286 5.6653403 13.76330059 4 20 C2.85755839 22.58347591 1.59889556 24.65495317 0 27 C-1.51171875 25.734375 -1.51171875 25.734375 -3 24 C-2.84488474 20.89769478 -2.48686001 18.05731581 -2 15 C-1.73376218 13.00321637 -1.46773619 11.00639806 -1.20776367 9.00878906 C-0.81574954 6.00440979 -0.40742996 3.00232367 0 0 Z " fill="#12A1E1" transform="translate(372,99)"/>
<path d="M0 0 C0.33 0.66 0.66 1.32 1 2 C2.32 1.67 3.64 1.34 5 1 C6.68748428 5.72495599 7.59557498 8.68572157 5.5 13.375 C3.75296881 16.4263216 3.10183735 16.95299815 -0.25 18.5 C-1.61125 18.7475 -1.61125 18.7475 -3 19 C-3.33 18.34 -3.66 17.68 -4 17 C-4.66 17.33 -5.32 17.66 -6 18 C-4.23536928 11.89262558 -2.30442525 5.92566493 0 0 Z " fill="#17A3E1" transform="translate(302,360)"/>
<path d="M0 0 C0.66 0.66 1.32 1.32 2 2 C2.33 1.34 2.66 0.68 3 0 C5.97 0.495 5.97 0.495 9 1 C8.6875 3.375 8.6875 3.375 8 6 C5 8 5 8 3 9 C3.33 11.64 3.66 14.28 4 17 C3.34 17.33 2.68 17.66 2 18 C1.34444881 20.52733235 1.34444881 20.52733235 1 23 C0.01 23 -0.98 23 -2 23 C-2.96804074 19.89484695 -2.98121797 17.6488104 -2.44140625 14.453125 C-2.30283203 13.60878906 -2.16425781 12.76445312 -2.02148438 11.89453125 C-1.87001953 11.02183594 -1.71855469 10.14914063 -1.5625 9.25 C-1.34110352 7.91775391 -1.34110352 7.91775391 -1.11523438 6.55859375 C-0.75064986 4.37108664 -0.37867934 2.18510358 0 0 Z " fill="#10A0E0" transform="translate(361,169)"/>
<path d="M0 0 C2.475 0.99 2.475 0.99 5 2 C5.22937511 6.71652565 4.46206455 10.3974273 3 14.875 C2.62875 16.02742188 2.2575 17.17984375 1.875 18.3671875 C1.58625 19.23601562 1.2975 20.10484375 1 21 C-0.515625 19.86328125 -0.515625 19.86328125 -2 18 C-2.109375 15.29296875 -2.109375 15.29296875 -1.75 12.1875 C-1.63269531 11.12402344 -1.51539063 10.06054688 -1.39453125 8.96484375 C-0.99497394 5.96222988 -0.57827568 2.97398919 0 0 Z " fill="#14A1DF" transform="translate(343,282)"/>
<path d="M0 0 C0.33 0.66 0.66 1.32 1 2 C1.99 1.67 2.98 1.34 4 1 C5.46444278 6.45837765 4.63918616 9.19291091 2 14 C1.01 14.33 0.02 14.66 -1 15 C-3 13 -3 13 -4 11 C-3.22265625 8.3984375 -3.22265625 8.3984375 -2.0625 5.375 C-1.68222656 4.37210937 -1.30195313 3.36921875 -0.91015625 2.3359375 C-0.60980469 1.56507813 -0.30945313 0.79421875 0 0 Z " fill="#1CA4E1" transform="translate(287,400)"/>
<path d="M0 0 C-0.7115625 1.051875 -0.7115625 1.051875 -1.4375 2.125 C-3.08739857 5.16081337 -3.60368464 7.59168786 -4 11 C-5.33897583 10.04956626 -6.67105427 9.08940853 -8 8.125 C-8.7425 7.59132812 -9.485 7.05765625 -10.25 6.5078125 C-10.8275 6.01023438 -11.405 5.51265625 -12 5 C-12 4.34 -12 3.68 -12 3 C-10.3789897 2.30314502 -8.75303934 1.61777139 -7.125 0.9375 C-6.22007813 0.55464844 -5.31515625 0.17179688 -4.3828125 -0.22265625 C-2 -1 -2 -1 0 0 Z " fill="#58595C" transform="translate(117,190)"/>
<path d="M0 0 C-1.00911458 1.7578125 -2.01822917 3.515625 -3.02734375 5.2734375 C-3.71719051 6.49798475 -4.37144538 7.74289077 -5 9 C-7.49361571 7.79618552 -9.68143083 6.54571278 -12 5 C-12 4.34 -12 3.68 -12 3 C-10.3789897 2.30314502 -8.75303934 1.61777139 -7.125 0.9375 C-6.22007813 0.55464844 -5.31515625 0.17179687 -4.3828125 -0.22265625 C-2 -1 -2 -1 0 0 Z " fill="#595B5D" transform="translate(128,288)"/>
<path d="M0 0 C3.375 0.25 3.375 0.25 7 1 C8.25 3 8.25 3 9 5 C9.99 5.33 10.98 5.66 12 6 C7.71 6 3.42 6 -1 6 C-0.67 4.02 -0.34 2.04 0 0 Z " fill="#21A5E1" transform="translate(276,430)"/>
<path d="M0 0 C2.03144641 0.93446535 4.03533587 1.93224776 6 3 C3.18459435 4.47840936 0.39290564 5.62576034 -2.625 6.625 C-3.40101562 6.88539063 -4.17703125 7.14578125 -4.9765625 7.4140625 C-7 8 -7 8 -9 8 C-8.67 6.35 -8.34 4.7 -8 3 C-7.01 2.67 -6.02 2.34 -5 2 C-4.34 2.33 -3.68 2.66 -3 3 C-2.67 2.34 -2.34 1.68 -2 1 C-1.34 0.67 -0.68 0.34 0 0 Z " fill="#F2F7F9" transform="translate(60,227)"/>
<path d="M0 0 C0.66 0.33 1.32 0.66 2 1 C1.67 1.99 1.34 2.98 1 4 C0.01 4 -0.98 4 -2 4 C-2 4.66 -2 5.32 -2 6 C-5.99000166 7.42500059 -9.80530429 8.40075776 -14 9 C-14.33 8.34 -14.66 7.68 -15 7 C-14.00097656 6.57847656 -13.00195312 6.15695312 -11.97265625 5.72265625 C-10.66921692 5.16939783 -9.36583443 4.61600549 -8.0625 4.0625 C-7.0734668 3.64581055 -7.0734668 3.64581055 -6.06445312 3.22070312 C-2.79531504 1.99207117 -2.79531504 1.99207117 0 0 Z " fill="#E4F0F6" transform="translate(340,419)"/>
<path d="M0 0 C0.33 0.99 0.66 1.98 1 3 C-0.32 3.33 -1.64 3.66 -3 4 C-2.67 5.65 -2.34 7.3 -2 9 C-4.9719385 7.87548273 -7.33440687 6.77706209 -10 5 C-9.67 4.01 -9.34 3.02 -9 2 C-5.82757352 0.68964993 -3.44118336 0 0 0 Z " fill="#57585B" transform="translate(35,321)"/>
<path d="M0 0 C0 0.66 0 1.32 0 2 C-2.26708325 2.8655047 -4.53775079 3.71759315 -6.8125 4.5625 C-7.45509766 4.80935547 -8.09769531 5.05621094 -8.75976562 5.31054688 C-13.66015625 7.11328125 -13.66015625 7.11328125 -17 6 C-15 3 -15 3 -12.9765625 2.3046875 C-12.20054687 2.16289062 -11.42453125 2.02109375 -10.625 1.875 C-9.85414063 1.72804688 -9.08328125 1.58109375 -8.2890625 1.4296875 C-7.53367187 1.28789062 -6.77828125 1.14609375 -6 1 C-5.28585937 0.81695312 -4.57171875 0.63390625 -3.8359375 0.4453125 C-2 0 -2 0 0 0 Z " fill="#F4F7F9" transform="translate(332,426)"/>
<path d="M0 0 C-1 3 -1 3 -2.92578125 3.984375 C-3.71339844 4.23703125 -4.50101563 4.4896875 -5.3125 4.75 C-6.09238281 5.01296875 -6.87226562 5.2759375 -7.67578125 5.546875 C-10.16921091 6.03298902 -11.6181897 5.80665429 -14 5 C-14 4.34 -14 3.68 -14 3 C-12.04486839 2.303447 -10.08577524 1.61800435 -8.125 0.9375 C-7.03445312 0.55464844 -5.94390625 0.17179688 -4.8203125 -0.22265625 C-2 -1 -2 -1 0 0 Z " fill="#E5F1F6" transform="translate(95,252)"/>
<path d="M0 0 C0.66 0.66 1.32 1.32 2 2 C1.61909245 7.52315952 0.42981775 12.66201374 -1 18 C-1.33 18 -1.66 18 -2 18 C-2.3690205 5.33029613 -2.3690205 5.33029613 0 0 Z " fill="#21A5E0" transform="translate(415,309)"/>
<path d="M0 0 C0.99 0.33 1.98 0.66 3 1 C2.01 1.495 2.01 1.495 1 2 C0.67 2.99 0.34 3.98 0 5 C-1.98 5.33 -3.96 5.66 -6 6 C-6 5.34 -6 4.68 -6 4 C-8.31 4.33 -10.62 4.66 -13 5 C-10.13851267 3.09234178 -8.64699621 2.5716491 -5.375 1.9375 C-2.40230348 1.52905984 -2.40230348 1.52905984 0 0 Z " fill="#30AAE1" transform="translate(81,225)"/>
<path d="M0 0 C2.46934085 3.70401128 2.44928433 6.70587865 2 11 C1 13.5 1 13.5 0 15 C-2.23657115 10.6584207 -1.96324826 7.72867326 -1 3 C-0.67 2.01 -0.34 1.02 0 0 Z " fill="#27A7E1" transform="translate(450,87)"/>
<path d="M0 0 C0.33 0.99 0.66 1.98 1 3 C1.66 3.33 2.32 3.66 3 4 C2.01 4.495 2.01 4.495 1 5 C0.34444881 7.52733235 0.34444881 7.52733235 0 10 C0.66 10 1.32 10 2 10 C2.33 13.3 2.66 16.6 3 20 C2.01 20 1.02 20 0 20 C0 17.36 0 14.72 0 12 C-0.33 12 -0.66 12 -1 12 C-1.14285714 3.42857143 -1.14285714 3.42857143 0 0 Z " fill="#26A7E1" transform="translate(357,194)"/>
<path d="M0 0 C2.31 0 4.62 0 7 0 C7.33 0.99 7.66 1.98 8 3 C5.69 3.66 3.38 4.32 1 5 C0.01 4.01 -0.98 3.02 -2 2 C-1.34 2 -0.68 2 0 2 C0 1.34 0 0.68 0 0 Z " fill="#555658" transform="translate(65,346)"/>
<path d="M0 0 C-1.98 0.99 -3.96 1.98 -6 3 C-5.67 4.32 -5.34 5.64 -5 7 C-6.98 7 -8.96 7 -11 7 C-10.01 5.68 -9.02 4.36 -8 3 C-8.66 2.67 -9.32 2.34 -10 2 C-8.71211992 1.46987262 -7.41953322 0.9511671 -6.125 0.4375 C-5.40570313 0.14746094 -4.68640625 -0.14257812 -3.9453125 -0.44140625 C-2 -1 -2 -1 0 0 Z " fill="#31ABE3" transform="translate(421,71)"/>
<path d="M0 0 C0.99 0.66 1.98 1.32 3 2 C3 2.66 3 3.32 3 4 C1.02 4.33 -0.96 4.66 -3 5 C-3.66 4.01 -4.32 3.02 -5 2 C-2.6875 0.875 -2.6875 0.875 0 0 Z " fill="#525355" transform="translate(123,327)"/>
<path d="M0 0 C0.99 0.66 1.98 1.32 3 2 C3 2.99 3 3.98 3 5 C1.02 5.33 -0.96 5.66 -3 6 C-2.625 3.5625 -2.625 3.5625 -2 1 C-1.34 0.67 -0.68 0.34 0 0 Z " fill="#E8F2F7" transform="translate(54,229)"/>
<path d="M0 0 C-3.18762365 2.12508244 -5.26512223 2.5020163 -9 3 C-8.67 2.01 -8.34 1.02 -8 0 C-4.71023192 -1.09658936 -3.28696233 -0.79953138 0 0 Z " fill="#22A6E1" transform="translate(103,248)"/>
<path d="M0 0 C-2.625 4.875 -2.625 4.875 -6 6 C-5.67 4.68 -5.34 3.36 -5 2 C-5.66 1.67 -6.32 1.34 -7 1 C-4.53721199 -0.231394 -2.7204945 -0.07159196 0 0 Z " fill="#25A7E1" transform="translate(387,84)"/>
<path d="M0 0 C2.31 0.33 4.62 0.66 7 1 C6.01 1.495 6.01 1.495 5 2 C4.67 2.99 4.34 3.98 4 5 C2.64567325 3.68799596 1.31266518 2.35368596 0 1 C0 0.67 0 0.34 0 0 Z " fill="#545558" transform="translate(86,302)"/>
<path d="M0 0 C0.66 0 1.32 0 2 0 C3.2077558 3.62326739 2.54311128 4.64146369 1 8 C0.34 8 -0.32 8 -1 8 C-0.67 5.36 -0.34 2.72 0 0 Z " fill="#0CA0E2" transform="translate(347,275)"/>
<path d="M0 0 C1.88343932 3.76687864 2.22057835 5.02958963 2 9 C1.34 9 0.68 9 0 9 C-0.33 9.66 -0.66 10.32 -1 11 C-0.67 7.37 -0.34 3.74 0 0 Z " fill="#26A5DF" transform="translate(359,181)"/>
<path d="M0 0 C1.98 1.65 3.96 3.3 6 5 C5.34 5.66 4.68 6.32 4 7 C2.35 5.02 0.7 3.04 -1 1 C-0.67 0.67 -0.34 0.34 0 0 Z " fill="#494A4D" transform="translate(190,402)"/>
<path d="M0 0 C0.66 0.33 1.32 0.66 2 1 C2 1.99 2 2.98 2 4 C-0.31 3.67 -2.62 3.34 -5 3 C-2 1 -2 1 0 0 Z " fill="#606164" transform="translate(113,371)"/>
<path d="M0 0 C1.65 0 3.3 0 5 0 C4.67 1.32 4.34 2.64 4 4 C2.68 3.67 1.36 3.34 0 3 C0 2.01 0 1.02 0 0 Z " fill="#56575A" transform="translate(277,357)"/>
<path d="M0 0 C3.16115776 1.36983503 3.9927092 1.9890638 6 5 C3 5 3 5 0.8125 3 C0.214375 2.34 -0.38375 1.68 -1 1 C-0.67 0.67 -0.34 0.34 0 0 Z " fill="#58595B" transform="translate(125,208)"/>
</svg>
