<?xml version="1.0" encoding="UTF-8"?>
<svg version="1.1" xmlns="http://www.w3.org/2000/svg" width="1024" height="1024">
<path d="M0 0 C337.92 0 675.84 0 1024 0 C1024 337.92 1024 675.84 1024 1024 C686.08 1024 348.16 1024 0 1024 C0 686.08 0 348.16 0 0 Z " fill="currentColor" transform="translate(0,0)"/>
<path d="M0 0 C-0.14095064 1.6254308 -0.28792087 3.25034051 -0.4375 4.875 C-0.51871094 5.77992187 -0.59992188 6.68484375 -0.68359375 7.6171875 C-1 10 -1 10 -2 12 C-2.32722469 13.80903195 -2.61108339 15.6259663 -2.875 17.4453125 C-3.13603516 19.20343262 -3.13603516 19.20343262 -3.40234375 20.99707031 C-3.54518799 21.96199402 -3.54518799 21.96199402 -3.69091797 22.94641113 C-4.24879125 26.65300761 -4.84548066 30.35342005 -5.4375 34.0546875 C-5.69542907 35.67576271 -5.95323986 37.29685674 -6.2109375 38.91796875 C-6.6048782 41.39451657 -6.99935572 43.87097285 -7.39550781 46.34716797 C-8.68823203 54.43230792 -9.96080481 62.51034264 -11 70.6328125 C-11.74706476 76.3722336 -12.68107206 82.06027032 -13.71064758 87.75395203 C-15.72954922 98.96146316 -17.52499064 110.20759236 -19.36196136 121.44604492 C-19.69286656 123.47032946 -20.02405051 125.49456825 -20.35528564 127.51879883 C-29.4858852 183.3282802 -38.30551304 239.18837972 -46.85546875 295.08984375 C-46.98435486 295.93246262 -47.11324097 296.77508148 -47.24603271 297.64323425 C-47.71369898 300.70263111 -48.18113457 303.76206172 -48.64691162 306.82174683 C-49.98781547 315.62265599 -51.38729802 324.4120989 -52.83984375 333.1953125 C-53.07801567 334.63960129 -53.07801567 334.63960129 -53.32099915 336.11306763 C-54.08695136 340.75460527 -54.85847357 345.39506178 -55.6418457 350.03369141 C-57.01598749 358.26459092 -58.21298398 366.45804318 -59.015625 374.765625 C-59.63288435 381.13467821 -60.51858822 387.35879061 -61.76522827 393.64237976 C-62.9208008 399.47346484 -63.91154297 405.32438461 -64.8671875 411.19140625 C-65.02893967 412.18332474 -65.19069183 413.17524323 -65.35734558 414.19721985 C-65.86484924 417.31871963 -66.37007162 420.4405827 -66.875 423.5625 C-67.22847952 425.74098586 -67.58207756 427.9194525 -67.93579102 430.09790039 C-68.63511201 434.40657734 -69.33327247 438.71544025 -70.03076172 443.02441406 C-70.75807759 447.51413072 -71.49059742 452.00295731 -72.22790527 456.49104309 C-72.58476514 458.6637029 -72.94034701 460.8365674 -73.29541016 463.00952148 C-73.70830891 465.53542567 -74.12318513 468.06100782 -74.54052734 470.58618164 C-75.33834794 475.49331016 -76.06879981 480.36295907 -76.50390625 485.31640625 C-76.83681813 488.95868167 -77.49168762 492.32126654 -78.44677734 495.84619141 C-79.619001 500.40989709 -80.41560418 505.06341647 -81.3125 509.6875 C-93.73283785 572.52387439 -121.41766399 629.62882376 -166 676 C-166.82153564 676.86238281 -166.82153564 676.86238281 -167.65966797 677.7421875 C-175.3799231 685.81266248 -183.39269218 693.03294878 -192.328125 699.72949219 C-193.91888132 700.93835549 -195.47619909 702.19085133 -197.03125 703.4453125 C-216.10072406 718.73038063 -237.72235961 729.47858887 -260.02587891 739.14135742 C-261.85539488 739.9371041 -263.67616775 740.75287088 -265.49609375 741.5703125 C-269.44226491 743.18045591 -273.40427175 744.40118886 -277.5 745.5625 C-278.22058594 745.77068359 -278.94117188 745.97886719 -279.68359375 746.19335938 C-281.78775434 746.8002556 -283.89360036 747.40092755 -286 748 C-287.73636719 748.49693359 -287.73636719 748.49693359 -289.5078125 749.00390625 C-291.23644531 749.49697266 -291.23644531 749.49697266 -293 750 C-293.63454102 750.18473877 -294.26908203 750.36947754 -294.92285156 750.55981445 C-318.44228201 757.35250094 -343.47790724 761.34925307 -368 761 C-364.89847053 752.66108926 -361.75330701 744.34348087 -358.5 736.0625 C-355.94654712 729.55074129 -353.56188447 722.99724881 -351.26733398 716.39038086 C-349.47315321 711.25763868 -347.55110631 706.18535668 -345.5625 701.125 C-341.29874154 690.27083377 -337.20726921 679.35163793 -333.3671875 668.33984375 C-333.10494385 667.58840088 -332.8427002 666.83695801 -332.57250977 666.06274414 C-332.08733754 664.66614011 -331.60569002 663.26830325 -331.12866211 661.86889648 C-329.91780496 658.37277203 -328.5766948 654.99698046 -327.04296875 651.62890625 C-324.88896643 646.86962564 -323.1768238 642.00654207 -321.5 637.0625 C-319.39948949 630.95268841 -317.22945014 624.9127997 -314.7578125 618.94140625 C-313.88068289 616.79083751 -313.88068289 616.79083751 -313.0625 613.625 C-311.48269019 608.23506064 -309.21583498 603.15493954 -307 598 C-306.608125 596.82308594 -306.21625 595.64617188 -305.8125 594.43359375 C-303.4500953 589.95826243 -300.7627163 588.46019051 -296.4375 586.0625 C-294.98169514 585.20243674 -293.52855943 584.33783951 -292.078125 583.46875 C-291.37494141 583.04980469 -290.67175781 582.63085938 -289.94726562 582.19921875 C-261.91027535 564.93270719 -245.74061703 532.88961622 -238.1484375 501.8984375 C-237.76184509 500.26651582 -237.37893778 498.63371608 -237 497 C-236.82758789 496.25782227 -236.65517578 495.51564453 -236.47753906 494.75097656 C-233.5889312 481.9971816 -231.77855034 469.0746396 -229.93017578 456.1394043 C-228.41284429 445.5603938 -226.69933642 435.03412539 -224.78735352 424.51782227 C-223.54068332 417.55157072 -222.52117854 410.57672471 -221.59375 403.5625 C-220.19817752 393.05839947 -218.46804756 382.63088171 -216.63998413 372.19445801 C-213.52391462 354.37811128 -210.64784716 336.54740458 -208.10546875 318.640625 C-206.95746625 310.58930786 -205.68532229 302.55953357 -204.40310669 294.52874756 C-203.85571214 291.09486102 -203.3132919 287.66019489 -202.77064514 284.22555542 C-202.05730212 279.71257319 -201.3413598 275.20000423 -200.625 270.6875 C-200.47315247 269.73089478 -200.32130493 268.77428955 -200.16485596 267.78869629 C-198.28150035 255.93435945 -196.36745029 244.08650554 -194.375 232.25 C-191.30963235 214.01093795 -188.40262299 195.74529491 -185.75 177.44140625 C-185.64682968 176.72957687 -185.54365936 176.0177475 -185.43736267 175.28434753 C-185.22896226 173.84562483 -185.02058315 172.40689904 -184.81222534 170.96817017 C-184.70919098 170.25679901 -184.60615662 169.54542786 -184.5 168.8125 C-184.39720734 168.10233734 -184.29441467 167.39217468 -184.18850708 166.66049194 C-182.57733031 155.56357314 -180.75169999 144.51673157 -178.8046875 133.47314453 C-177.41762548 125.55969398 -176.16520243 117.63643128 -175 109.6875 C-174.83338867 108.60903809 -174.66677734 107.53057617 -174.49511719 106.41943359 C-173.64275339 100.82651469 -172.90319577 95.25019796 -172.38058472 89.61784363 C-172.09868933 86.68561773 -171.7616323 83.7609417 -171.41821289 80.83535767 C-171.26622264 79.42038073 -171.13926439 78.00245701 -171.03930664 76.58285522 C-170.71015132 71.98214288 -170.17386803 68.09534186 -168 64 C-163.21191197 60.90763478 -158.45510178 59.51615607 -153 58 C-151.02804359 57.19943657 -149.06615706 56.37259563 -147.125 55.5 C-141.5490017 53.15022294 -135.87312185 51.14995215 -130.13720703 49.23046875 C-125.81938648 47.75604105 -121.83929806 45.96826526 -117.78613281 43.87670898 C-115.65541125 42.83086137 -113.54664071 42.15294841 -111.25 41.5625 C-106.47732045 40.21024079 -102.02270338 38.40062744 -97.46484375 36.453125 C-93.35722938 34.73042765 -89.21592711 33.10839457 -85.0625 31.5 C-83.90754028 31.05237305 -83.90754028 31.05237305 -82.72924805 30.59570312 C-79.22309424 29.2393918 -75.71458664 27.8893827 -72.203125 26.546875 C-70.52476562 25.90492188 -70.52476562 25.90492188 -68.8125 25.25 C-67.77738281 24.85425781 -66.74226563 24.45851562 -65.67578125 24.05078125 C-63.59515203 23.23371664 -61.5411466 22.34872616 -59.5 21.4375 C-56.4186596 20.17194948 -53.44434855 19.23549016 -50.25 18.3125 C-43.72319114 16.35894826 -37.57244633 13.7755494 -31.32275391 11.0769043 C-24.49288017 8.14991318 -17.56828498 5.62801123 -10.5390625 3.2265625 C-8.3900887 2.48177467 -6.25412423 1.69551921 -4.1484375 0.8359375 C-2 0 -2 0 0 0 Z " fill="#079BDC" transform="translate(916,112)"/>
<path d="M0 0 C-2.87013556 19.43417082 -5.76816636 38.8620607 -8.9375 58.25 C-9.05809784 58.98852203 -9.17869568 59.72704407 -9.302948 60.48794556 C-9.80225394 63.54515603 -10.30188554 66.6023131 -10.80189514 69.65940857 C-13.474565 86.00932095 -16.10276719 102.36606688 -18.6472168 118.7364502 C-18.96187858 120.75540295 -19.28047322 122.77374186 -19.59960938 124.79199219 C-24.35311856 155.21627221 -24.88374722 187.85511119 -6.8125 214.1875 C9.62820939 230.62820939 30.60931622 234.46694417 53 236 C51.51798923 241.33764854 49.83973914 246.54966641 47.82421875 251.7109375 C47.38295654 252.84845459 46.94169434 253.98597168 46.48706055 255.15795898 C46.2478891 255.77444305 46.00871765 256.39092712 45.76229858 257.02609253 C43.45041192 263.01252678 41.1888052 269.01841855 38.91601562 275.01977539 C38.30593168 276.63002628 37.69525566 278.24005298 37.08398438 279.84985352 C33.63834216 288.92417731 30.24189249 298.00626573 27.03686523 307.16894531 C26.14187509 309.61262455 25.16613485 311.95761613 24.0625 314.3125 C21.73583765 319.33319244 20.01796883 324.55699571 18.21118164 329.78051758 C16.93972646 333.42797705 15.64127383 336.99861583 14 340.5 C12.04867991 344.66983338 10.56674022 348.96696961 9.0625 353.3125 C7.01779357 359.21086317 4.82445493 364.98881446 2.3671875 370.73046875 C-0.57195936 377.75922854 -3.25945545 384.89195938 -6 392 C-7.47923446 391.85485591 -8.95838296 391.70883578 -10.4375 391.5625 C-11.26121094 391.48128906 -12.08492188 391.40007812 -12.93359375 391.31640625 C-13.94550781 391.21199219 -14.95742188 391.10757812 -16 391 C-16.68102783 390.93941406 -17.36205566 390.87882812 -18.0637207 390.81640625 C-23.32416462 390.30822752 -28.23797426 389.33719074 -33.3125 387.875 C-34.08102295 387.65545654 -34.8495459 387.43591309 -35.64135742 387.2097168 C-87.01008828 372.23472427 -131.78360017 342.28327814 -157.96875 294.69995117 C-158.99134047 292.80611551 -159.99975813 290.90572398 -161 289 C-161.31759277 288.39655762 -161.63518555 287.79311523 -161.96240234 287.17138672 C-167 277.52996236 -167 277.52996236 -167 275 C-213.2 275 -259.4 275 -307 275 C-299.19184276 269.79456184 -290.07314841 266.83205142 -281.3125 263.60546875 C-277.59502397 262.232692 -273.90668765 260.79351304 -270.22070312 259.33862305 C-263.84228907 256.82122289 -257.46162162 254.42650744 -250.9375 252.3125 C-246.29590341 250.8012825 -241.88727246 249.14681551 -237.46875 247.0859375 C-234.21521571 245.65479425 -230.89414188 244.42188674 -227.5625 243.1875 C-221.7311433 241.02575192 -215.9188526 238.82299232 -210.125 236.5625 C-209.02031372 236.13155029 -209.02031372 236.13155029 -207.89331055 235.69189453 C-206.38255464 235.10213158 -204.87189491 234.51212218 -203.36132812 233.921875 C-199.20094756 232.2976404 -195.03779392 230.68053687 -190.875 229.0625 C-189.35155082 228.47008212 -187.82811219 227.8776371 -186.3046875 227.28515625 C-184.66886719 226.64900391 -184.66886719 226.64900391 -183 226 C-182.97274659 224.2709226 -182.95349013 222.54171824 -182.9375 220.8125 C-182.92589844 219.84957031 -182.91429687 218.88664063 -182.90234375 217.89453125 C-182.90843592 215.0866759 -182.90843592 215.0866759 -183.5 212.74609375 C-184.0902655 209.50424493 -184.11217259 206.46317778 -184.09765625 203.16796875 C-184.09282227 201.22954102 -184.09282227 201.22954102 -184.08789062 199.25195312 C-184.07953665 197.89713474 -184.07107172 196.54231703 -184.0625 195.1875 C-184.05748 193.81315265 -184.05291797 192.43880355 -184.04882812 191.06445312 C-184.03705668 187.70959076 -184.02061283 184.35481779 -184 181 C-184.60126709 180.71713135 -185.20253418 180.4342627 -185.82202148 180.14282227 C-188.92942246 178.51231627 -191.42983494 176.22680786 -194.0625 173.9375 C-195.23377534 172.93289418 -196.40565891 171.9289971 -197.578125 170.92578125 C-198.15884766 170.42771973 -198.73957031 169.9296582 -199.33789062 169.41650391 C-203.49790586 165.87120303 -207.75870012 162.44709028 -212 159 C-213.26192505 157.96770006 -214.5236295 156.9351304 -215.78515625 155.90234375 C-223.49420353 149.60086554 -231.27533768 143.42737291 -239.19091797 137.38671875 C-242.78713947 134.63010092 -246.36131012 131.84502241 -249.9375 129.0625 C-250.70151123 128.46840332 -251.46552246 127.87430664 -252.25268555 127.26220703 C-255.84837576 124.46356084 -259.43873307 121.65857953 -263.015625 118.8359375 C-263.94967163 118.09911743 -263.94967163 118.09911743 -264.90258789 117.34741211 C-266.04361067 116.4461118 -267.18353275 115.54341513 -268.32202148 114.63891602 C-272.13028037 111.62926845 -276.03536454 108.79768616 -280 106 C-279 104 -279 104 -277.13671875 103.32421875 C-276.32847656 103.11410156 -275.52023437 102.90398437 -274.6875 102.6875 C-270.79996914 101.58932744 -267.14716287 100.28613925 -263.4375 98.6875 C-258.7878967 96.69180832 -254.08629913 94.94362249 -249.3046875 93.296875 C-240.52405884 90.23409196 -231.85577265 86.90781328 -223.19009399 83.53582764 C-211.17871213 78.86427086 -199.17049263 74.23843607 -186.97119141 70.07617188 C-181.98784604 68.37066585 -177.14125531 66.45633538 -172.30078125 64.375 C-165.1323936 61.38887876 -157.837948 58.71126008 -150.57275391 55.97119141 C-148.21764536 55.08215916 -145.8644012 54.18839662 -143.51171875 53.29296875 C-137.62601567 51.06022203 -131.73909337 48.88221208 -125.75 46.9375 C-120.70613735 45.29483662 -115.87593025 43.30117854 -111 41.21875 C-108.02999346 40.01218484 -105.05001087 38.98489934 -102 38 C-98.07319034 36.72985925 -94.2894892 35.3214511 -90.5 33.6875 C-85.07907951 31.36934321 -79.57168815 29.41634726 -74 27.5 C-67.62042521 25.303002 -61.36855034 22.97598075 -55.16796875 20.30859375 C-48.6490775 17.61583349 -41.98822392 15.28125245 -35.36328125 12.86425781 C-31.82052159 11.56866182 -28.28351241 10.25809242 -24.75 8.9375 C-24.10949707 8.69829834 -23.46899414 8.45909668 -22.80908203 8.21264648 C-17.39955252 6.17841656 -12.03625234 4.03341412 -6.69433594 1.82788086 C-2.21403099 0 -2.21403099 0 0 0 Z " fill="#3F4142" transform="translate(511,478)"/>
<path d="M0 0 C-0.57240241 8.98912187 -1.84563497 17.74957466 -3.3984375 26.6171875 C-3.63699994 28.00455338 -3.87499362 29.39201716 -4.11245728 30.77957153 C-4.86091533 35.14571115 -5.61773994 39.51037998 -6.375 43.875 C-7.36704814 49.6006951 -8.3551191 55.32705742 -9.3359375 61.0546875 C-9.45483589 61.74855686 -9.57373428 62.44242622 -9.69623566 63.15732193 C-11.59763614 74.28793562 -13.25647627 85.43429533 -14.68855286 96.63459778 C-16.00747403 106.65163962 -17.50419274 116.64515626 -19.4375 126.5625 C-20.60925716 132.59826995 -21.55737471 138.64151475 -22.42993164 144.7277832 C-22.93537724 148.23526932 -23.46353995 151.73872501 -23.99609375 155.2421875 C-24.64206782 159.49198516 -25.21466577 163.73954933 -25.72265625 168.0078125 C-27.39890296 180.51544728 -27.39890296 180.51544728 -31.25390625 184.08984375 C-34.46829202 185.48915216 -37.58105122 186.22263901 -41 187 C-43.17038478 187.73876755 -45.30699422 188.54412677 -47.4473877 189.36546326 C-49.84556698 190.27753614 -52.25186467 191.16236956 -54.66308594 192.03930664 C-59.64611442 193.86172698 -64.6016748 195.75019516 -69.5546875 197.65234375 C-82.80763073 202.72059256 -96.13723228 207.57765719 -109.46411133 212.44726562 C-112.65751074 213.61466794 -115.85025602 214.78384624 -119.04296875 215.953125 C-119.99729294 216.30111145 -120.95161713 216.6490979 -121.93486023 217.00762939 C-127.26695744 218.96082598 -132.55353323 221.00121197 -137.81929016 223.12664795 C-140.34098645 224.1365616 -142.88042786 225.08354534 -145.4375 226 C-146.35273438 226.33 -147.26796875 226.66 -148.2109375 227 C-150.0703125 227.66666667 -151.9296875 228.33333333 -153.7890625 229 C-159.13925376 230.92908304 -164.43294227 232.95653687 -169.70507812 235.08935547 C-173.9871417 236.78851474 -178.34872279 238.25153897 -182.703125 239.75390625 C-186.04541312 240.93310312 -186.04541312 240.93310312 -189.171875 242.71484375 C-192 244 -192 244 -194.1328125 243.8984375 C-196.45980408 242.77875536 -198.00342628 241.40918507 -199.875 239.625 C-203.74080009 236.07075288 -207.73157318 232.78117501 -211.875 229.5625 C-217.99394058 224.7989797 -224.01044795 219.92561846 -230 215 C-238.45667786 208.06543342 -246.95875815 201.22451111 -255.65625 194.59375 C-259.49887241 191.6378866 -263.24743114 188.56882678 -267 185.5 C-272.85537437 180.71354114 -278.78148318 176.04532911 -284.79296875 171.45703125 C-289.98430911 167.4920672 -295.10329566 163.43412666 -300.23388672 159.39111328 C-302.57228908 157.54922544 -304.91296424 155.71024045 -307.25390625 153.87158203 C-308.41428806 152.96008525 -309.57444581 152.04830317 -310.734375 151.13623047 C-313.73453589 148.7773961 -316.73779724 146.42267112 -319.74609375 144.07421875 C-325.60121972 139.49831886 -331.42181604 134.91411444 -337 130 C-336 128 -336 128 -333.04296875 126.88671875 C-331.75965675 126.48109747 -330.47434347 126.08177428 -329.1875 125.6875 C-324.40438428 124.16230928 -319.74046644 122.55247858 -315.125 120.5625 C-310.25253992 118.4658257 -305.32232637 116.66968723 -300.3125 114.9375 C-295.22809716 113.17630137 -290.28797845 111.32656882 -285.40625 109.0546875 C-279.39353514 106.4192443 -273.15767211 104.27245686 -267 102 C-249.48939601 95.53075194 -232.10978637 88.70642027 -214.8125 81.6875 C-210.00330688 79.75069185 -205.15274005 77.99429124 -200.25 76.3125 C-191.34063242 73.25177391 -182.67130262 69.63360438 -173.96557617 66.04174805 C-166.87728708 63.1313148 -159.76838142 60.40717122 -152.52001953 57.92578125 C-147.59153841 56.23389614 -142.79951518 54.320672 -138.0078125 52.27734375 C-129.72968235 48.76182614 -121.35383878 45.48488369 -112.92578125 42.34765625 C-102.40631164 38.41802471 -91.92320395 34.39365252 -81.4375 30.375 C-79.34879884 29.57518677 -77.26009438 28.77538217 -75.17138672 27.97558594 C-63.94933307 23.67644403 -52.7373947 19.35258106 -41.53814697 14.99441528 C-31.87999363 11.23637836 -22.21310714 7.54909881 -12.41015625 4.18359375 C-9.79472577 3.27583266 -7.20842373 2.33016484 -4.62109375 1.34765625 C-1 0 -1 0 0 0 Z " fill="#3F4142" transform="translate(546,258)"/>
<path d="M0 0 C2.52773412 1.56449376 4.84786581 3.35692208 7.1875 5.1875 C7.88238525 5.71996338 8.57727051 6.25242676 9.29321289 6.80102539 C11.53644406 8.5243768 13.76895968 10.26090311 16 12 C17.48423353 13.15122408 18.96860828 14.30226612 20.453125 15.453125 C23.4689454 17.79426301 26.47959895 20.1418863 29.48828125 22.4921875 C33.13887802 25.33878847 36.81457158 28.15035258 40.50146484 30.94970703 C47.01401602 35.89589157 53.45758393 40.91488684 59.8125 46.0625 C60.80854248 46.86699585 60.80854248 46.86699585 61.82470703 47.68774414 C62.44587402 48.19426514 63.06704102 48.70078613 63.70703125 49.22265625 C64.51877808 49.88406616 64.51877808 49.88406616 65.34692383 50.55883789 C67.32591733 52.28413676 69.16063953 54.12760162 71 56 C62.25646248 59.85477973 53.3870102 62.97543344 44.31100464 65.9336853 C40.31933784 67.23570653 36.33317546 68.55429836 32.34765625 69.875 C31.54932877 70.13951462 30.75100128 70.40402924 29.92848206 70.67655945 C22.72528485 73.07303997 15.57620971 75.60484802 8.4375 78.1875 C-1.94285969 81.94216213 -12.37205817 85.51368127 -22.85961914 88.95776367 C-27.89316936 90.61372705 -32.88337058 92.32007269 -37.83984375 94.1953125 C-47.97921017 97.8634043 -47.97921017 97.8634043 -52.98046875 95.7265625 C-54.56794922 94.68628906 -54.56794922 94.68628906 -56.1875 93.625 C-57.50960758 92.78258303 -58.83260378 91.94155982 -60.15625 91.1015625 C-60.9090625 90.6159082 -61.661875 90.13025391 -62.4375 89.62988281 C-67.04264282 86.7007733 -71.72732682 83.90178298 -76.39929199 81.08096313 C-79.43101048 79.2483039 -82.45743936 77.40695037 -85.484375 75.56640625 C-90.51423384 72.50942288 -95.54560529 69.45494449 -100.578125 66.40234375 C-102.43495949 65.27581861 -104.29177644 64.14926457 -106.14859009 63.02270508 C-107.8732438 61.97647969 -109.59811669 60.93061566 -111.32299805 59.88476562 C-118.90063789 55.28642204 -126.45619291 50.653572 -134 46 C-132.72077249 43.44154499 -131.92410541 43.42560854 -129.265625 42.51953125 C-128.47518799 42.24641113 -127.68475098 41.97329102 -126.87036133 41.69189453 C-126.00564209 41.40169434 -125.14092285 41.11149414 -124.25 40.8125 C-123.35112061 40.50425293 -122.45224121 40.19600586 -121.52612305 39.87841797 C-114.43909276 37.45719546 -107.32544726 35.11546412 -100.21411133 32.7668457 C-91.088384 29.7333142 -82.05593641 26.44931674 -73.015625 23.171875 C-67.91923415 21.32591297 -62.80872201 19.52567244 -57.6875 17.75 C-46.18946444 13.75767771 -34.75357848 9.59106812 -23.3112793 5.44238281 C-22.54501724 5.16483658 -21.77875519 4.88729034 -20.98927307 4.60133362 C-19.54520621 4.07820857 -18.10137317 3.55443742 -16.65782166 3.02989197 C-4.10934141 -1.51528067 -4.10934141 -1.51528067 0 0 Z " fill="#404143" transform="translate(182,604)"/>
<path d="M0 0 C3.0703125 1.93359375 3.0703125 1.93359375 6.125 4.4375 C7.27189752 5.35967095 8.41903938 6.28153809 9.56640625 7.203125 C10.14148926 7.67298828 10.71657227 8.14285156 11.30908203 8.62695312 C13.85658873 10.69556093 16.45879385 12.69031999 19.0625 14.6875 C19.57441895 15.08203369 20.08633789 15.47656738 20.61376953 15.88305664 C26.73350805 20.58991715 32.92287338 25.20478826 39.10961914 29.82299805 C41.41078857 31.54293844 43.70634531 33.27005838 46 35 C47.0209375 35.76570313 48.041875 36.53140625 49.09375 37.3203125 C49.7228125 37.87460937 50.351875 38.42890625 51 39 C51 39.66 51 40.32 51 41 C50.44344727 41.16508057 49.88689453 41.33016113 49.31347656 41.50024414 C40.53413761 44.11794506 31.79343994 46.85842931 23.05078125 49.59570312 C16.91291737 51.50850832 10.76857956 53.36185279 4.578125 55.09765625 C-0.40516034 56.50422027 -5.17211353 58.13952276 -10 60 C-12.67224178 60.84653207 -15.36542585 61.61188051 -18.0625 62.375 C-27.24609953 65.02471747 -36.2743759 68.04655178 -45.3203125 71.1328125 C-61.38424908 76.56797901 -61.38424908 76.56797901 -67 75 C-74.5677132 71.02308949 -81.49401567 65.57180945 -88.44921875 60.62255859 C-93.16535184 57.27222599 -97.9255356 54.00466943 -102.75 50.8125 C-112.94146521 44.05212069 -112.94146521 44.05212069 -117.4375 41 C-118.50871094 40.278125 -119.57992187 39.55625 -120.68359375 38.8125 C-121.44800781 38.214375 -122.21242188 37.61625 -123 37 C-123 36.34 -123 35.68 -123 35 C-104.16135219 29.04137503 -85.28250616 23.2463211 -66.32739258 17.66870117 C-56.60205508 14.8062138 -56.60205508 14.8062138 -46.96264648 11.66870117 C-43.32706693 10.43000825 -39.66219632 9.28211341 -36 8.125 C-34.78582397 7.74081909 -34.78582397 7.74081909 -33.54711914 7.34887695 C-27.14134918 5.33357154 -20.71027407 3.41444027 -14.25585938 1.56103516 C-4.99076097 -1.11539876 -4.99076097 -1.11539876 0 0 Z " fill="#0A99DC" transform="translate(208,440)"/>
<path d="M0 0 C0.66 0.66 1.32 1.32 2 2 C5.13649725 3.04549908 5.9948905 3.00170317 9 2 C9.33 1.67 9.66 1.34 10 1 C11.66014616 0.63557767 13.32706064 0.30027117 15 0 C15.495 0.99 15.495 0.99 16 2 C16.66 2 17.32 2 18 2 C18.66 1.34 19.32 0.68 20 0 C20.99 0.99 20.99 0.99 22 2 C21.34 2.33 20.68 2.66 20 3 C19.67 3.99 19.34 4.98 19 6 C18.34 6.66 17.68 7.32 17 8 C20.33518118 9.84009996 22.50769111 10.02276403 26.3046875 9.96484375 C34.78005115 9.87468031 34.78005115 9.87468031 39 11 C38.34 12.32 37.68 13.64 37 15 C36.14535156 14.73896484 36.14535156 14.73896484 35.2734375 14.47265625 C32.82370747 13.96334812 31.09485579 14.09610355 28.625 14.4375 C22.087423 15.20086977 15.57255405 15.08523485 9 15 C9 15.66 9 16.32 9 17 C8.01080566 16.99476318 7.02161133 16.98952637 6.00244141 16.98413086 C2.33855084 16.96605477 -1.32533577 16.95455842 -4.98925781 16.94506836 C-6.57617861 16.94003412 -8.16309477 16.93320631 -9.75 16.92456055 C-12.02865749 16.91245518 -14.30725376 16.90676267 -16.5859375 16.90234375 C-17.29744965 16.89718246 -18.00896179 16.89202118 -18.74203491 16.88670349 C-22.49593556 16.82685242 -22.49593556 16.82685242 -26 18 C-27.37548156 18.08308638 -28.75485796 18.10736016 -30.1328125 18.09765625 C-30.93847656 18.09443359 -31.74414062 18.09121094 -32.57421875 18.08789062 C-33.41597656 18.07951172 -34.25773438 18.07113281 -35.125 18.0625 C-35.97449219 18.05798828 -36.82398438 18.05347656 -37.69921875 18.04882812 C-39.79950909 18.03702874 -41.8997633 18.01909306 -44 18 C-31.10881086 9.40587391 -14.5332555 5.13205585 0 0 Z " fill="#494A4D" transform="translate(248,735)"/>
<path d="M0 0 C2.375 1.6875 2.375 1.6875 4 4 C4.25 7.75 4.25 7.75 4 11 C4.99 11 5.98 11 7 11 C7 11.66 7 12.32 7 13 C7.928125 13.103125 8.85625 13.20625 9.8125 13.3125 C13.27604182 14.05953843 13.71172616 14.53660316 16 17 C17.84340951 18.55130608 19.70541209 20.07707443 21.57421875 21.59765625 C22.04472656 22.06042969 22.51523438 22.52320313 23 23 C23 23.66 23 24.32 23 25 C23.721875 25.226875 24.44375 25.45375 25.1875 25.6875 C28 27 28 27 30.1875 29.5 C33.63255003 32.5622667 36.11708261 32.89807257 40.56640625 33.60546875 C44.95142736 34.31636302 49.17160862 35.73132362 53 38 C53.33 38.66 53.66 39.32 54 40 C52.10787298 40.53414112 50.21108364 41.05178329 48.3125 41.5625 C46.72888672 41.99755859 46.72888672 41.99755859 45.11328125 42.44140625 C37.34498542 43.83521592 32.11437732 39.20449317 26 35 C22.50327505 32.56009456 19.02481056 30.09464206 15.55078125 27.62255859 C10.83464816 24.27222599 6.0744644 21.00466943 1.25 17.8125 C-8.94146521 11.05212069 -8.94146521 11.05212069 -13.4375 8 C-15.04431641 6.9171875 -15.04431641 6.9171875 -16.68359375 5.8125 C-17.44800781 5.214375 -18.21242188 4.61625 -19 4 C-19 3.34 -19 2.68 -19 2 C-16.96608008 1.26972015 -14.92238768 0.56662313 -12.875 -0.125 C-11.73804687 -0.51945312 -10.60109375 -0.91390625 -9.4296875 -1.3203125 C-5.49692877 -2.09969749 -3.61617692 -1.62624048 0 0 Z " fill="#16A3E5" transform="translate(104,473)"/>
<path d="M0 0 C-0.14095064 1.6254308 -0.28792087 3.25034051 -0.4375 4.875 C-0.51871094 5.77992187 -0.59992187 6.68484375 -0.68359375 7.6171875 C-1 10 -1 10 -2 12 C-2.32735342 13.8063957 -2.6111648 15.62074006 -2.875 17.4375 C-3.04515625 18.58476562 -3.2153125 19.73203125 -3.390625 20.9140625 C-3.48537109 21.55504883 -3.58011719 22.19603516 -3.67773438 22.85644531 C-4.30252392 27.01224244 -4.96659736 31.16192046 -5.625 35.3125 C-5.88804383 36.97525678 -6.15106649 38.63801691 -6.4140625 40.30078125 C-6.60742188 41.52152344 -6.80078125 42.74226563 -7 44 C-8.98 44.495 -8.98 44.495 -11 45 C-10.67 45.99 -10.34 46.98 -10 48 C-10.99 48 -11.98 48 -13 48 C-13 39 -13 39 -12 37 C-12.33 36.01 -12.66 35.02 -13 34 C-12.67 33.01 -12.34 32.02 -12 31 C-12.61875 30.9175 -13.2375 30.835 -13.875 30.75 C-16 30 -16 30 -17.25 28.125 C-18 26 -18 26 -18 23 C-18.94978897 20.84971696 -18.94978897 20.84971696 -20 19 C-20.66 19.66 -21.32 20.32 -22 21 C-24.375 20.6875 -24.375 20.6875 -27 20 C-27.70125 19.855625 -28.4025 19.71125 -29.125 19.5625 C-31 19 -31 19 -34 17 C-30.3321148 15.03810791 -27.12751449 13.60698743 -23 13 C-23.99 11.68 -24.98 10.36 -26 9 C-3.89320388 0 -3.89320388 0 0 0 Z " fill="#10A2E6" transform="translate(916,112)"/>
<path d="M0 0 C0.33 0.99 0.66 1.98 1 3 C3.475 3.495 3.475 3.495 6 4 C6 10 6 10 4.5 11.6875 C4.005 12.120625 3.51 12.55375 3 13 C3.66 13.33 4.32 13.66 5 14 C4.67 14.33 4.34 14.66 4 15 C4.66 15.33 5.32 15.66 6 16 C6 16.66 6 17.32 6 18 C6.556875 18.226875 7.11375 18.45375 7.6875 18.6875 C10.66159588 20.37550036 12.72008865 22.46676517 15 25 C15 25.66 15 26.32 15 27 C16.9600281 28.63676257 16.9600281 28.63676257 19 30 C18.67 30.66 18.34 31.32 18 32 C17.55309814 31.6282666 17.10619629 31.2565332 16.64575195 30.87353516 C8.04212514 23.72678768 -0.58672306 16.66946155 -9.55859375 9.98828125 C-12 8 -12 8 -14 5 C-12.04350603 4.16235732 -10.08474444 3.33000941 -8.125 2.5 C-6.48917969 1.80390625 -6.48917969 1.80390625 -4.8203125 1.09375 C-2 0 -2 0 0 0 Z " fill="#4C4C4F" transform="translate(223,382)"/>
<path d="M0 0 C-0.33 1.32 -0.66 2.64 -1 4 C0.32 4.33 1.64 4.66 3 5 C0.82489592 8.26265612 -0.12949953 8.73936409 -3.625 10.1875 C-4.44226563 10.53167969 -5.25953125 10.87585938 -6.1015625 11.23046875 C-6.72804687 11.48441406 -7.35453125 11.73835937 -8 12 C-7.34 12.33 -6.68 12.66 -6 13 C-6 13.66 -6 14.32 -6 15 C-5.443125 15.2475 -4.88625 15.495 -4.3125 15.75 C-1.57589087 17.22924818 0.67650869 18.93467439 3 21 C3 21.66 3 22.32 3 23 C3.66 23 4.32 23 5 23 C5 23.66 5 24.32 5 25 C4.01 25.33 3.02 25.66 2 26 C-0.53125 24.19140625 -0.53125 24.19140625 -3.5 21.5625 C-4.56521181 20.63644341 -5.63297954 19.71331961 -6.703125 18.79296875 C-7.24646484 18.32552246 -7.78980469 17.85807617 -8.34960938 17.37646484 C-12.38330105 14.01227051 -16.70901748 11.02396012 -21 8 C-20 6 -20 6 -17.99609375 5.25390625 C-17.15175781 5.02574219 -16.30742187 4.79757812 -15.4375 4.5625 C-12.0559131 3.6115803 -8.77404491 2.58607343 -5.5 1.3125 C-2 0 -2 0 0 0 Z " fill="#4A4A4D" transform="translate(252,576)"/>
<path d="M0 0 C-0.59498291 0.18997559 -1.18996582 0.37995117 -1.80297852 0.57568359 C-4.72296569 1.50833043 -7.64272199 2.44169853 -10.5625 3.375 C-11.66553467 3.72715576 -12.76856934 4.07931152 -13.9050293 4.44213867 C-20.32303435 6.4938508 -26.7351129 8.56203057 -33.140625 10.65234375 C-35.19408524 11.32073487 -37.24764697 11.98881328 -39.30123901 12.65679932 C-40.62457629 13.08822675 -41.94744654 13.5210898 -43.26980591 13.95550537 C-51.44635746 16.64108109 -59.61680394 19.04615333 -68 21 C-68 20.34 -68 19.68 -68 19 C-67.36191406 18.81824219 -66.72382813 18.63648438 -66.06640625 18.44921875 C-65.24011719 18.19785156 -64.41382813 17.94648437 -63.5625 17.6875 C-62.73878906 17.44386719 -61.91507813 17.20023438 -61.06640625 16.94921875 C-60.38449219 16.63597656 -59.70257813 16.32273437 -59 16 C-58.67 15.01 -58.34 14.02 -58 13 C-58.66 12.34 -59.32 11.68 -60 11 C-57.50090425 10.2053846 -55.00078857 9.41425597 -52.5 8.625 C-51.80390625 8.40328125 -51.1078125 8.1815625 -50.390625 7.953125 C-45.629049 6.45411033 -40.85323508 5.16958593 -36 4 C-37.875 7.875 -37.875 7.875 -39 9 C-29.56452112 6.7558861 -20.3083232 4.08013349 -11.09765625 1.04296875 C-10.21980469 0.76066406 -9.34195313 0.47835938 -8.4375 0.1875 C-7.67308594 -0.06644531 -6.90867188 -0.32039063 -6.12109375 -0.58203125 C-3.7237871 -1.05442869 -2.3214796 -0.65404478 0 0 Z " fill="#F3F8FA" transform="translate(219,500)"/>
<path d="M0 0 C0.33 0.66 0.66 1.32 1 2 C4.02934491 2.65772428 4.02934491 2.65772428 7 3 C7 9.97429907 7 9.97429907 4.328125 12.71484375 C2.17736647 14.17428704 0.51021131 15.29678477 -2 16 C-6.03297333 14.89830972 -9.32956778 12.6410041 -12.8125 10.375 C-13.78832031 9.74335937 -14.76414063 9.11171875 -15.76953125 8.4609375 C-16.87361328 7.73777344 -16.87361328 7.73777344 -18 7 C-16.42560529 3.85121058 -13.28472275 3.45977508 -10.125 2.375 C-9.48691406 2.14554688 -8.84882812 1.91609375 -8.19140625 1.6796875 C-5.32723295 0.67513402 -3.05749257 0 0 0 Z " fill="#4A4A4D" transform="translate(66,643)"/>
<path d="M0 0 C0.66 0 1.32 0 2 0 C2 0.66 2 1.32 2 2 C6.97906259 2.75427297 6.97906259 2.75427297 12 3 C12.99 3 13.98 3 15 3 C15.103125 3.94875 15.20625 4.8975 15.3125 5.875 C15.68539295 9.29107501 15.68539295 9.29107501 19 11 C19.33 10.34 19.66 9.68 20 9 C20.66 9.66 21.32 10.32 22 11 C21.34 11 20.68 11 20 11 C20.495 11.45375 20.99 11.9075 21.5 12.375 C23 14 23 14 23 16 C23.66 16 24.32 16 25 16 C27.73397536 18.52892721 29.93063422 20.89595133 32 24 C28.21863077 24.38983188 26.45633211 24.30422141 23.24609375 22.1640625 C22.31925781 21.32617188 21.39242188 20.48828125 20.4375 19.625 C19.40087301 18.70558 18.36171641 17.78900577 17.3203125 16.875 C16.7830957 16.400625 16.24587891 15.92625 15.69238281 15.4375 C12.31463669 12.56846232 8.70454046 9.97850134 5.10131836 7.40087891 C2.75592122 5.65965955 1.18389303 4.48760776 0.13671875 1.7109375 C0.09160156 1.14632813 0.04648438 0.58171875 0 0 Z " fill="#48484B" transform="translate(243,412)"/>
<path d="M0 0 C0.33 0.99 0.66 1.98 1 3 C0.01 3.33 -0.98 3.66 -2 4 C-2 4.99 -2 5.98 -2 7 C-4.79607022 8.46491151 -7.57006766 9.62245922 -10.5625 10.625 C-11.32691406 10.88539063 -12.09132813 11.14578125 -12.87890625 11.4140625 C-15 12 -15 12 -18 12 C-17.67 10.68 -17.34 9.36 -17 8 C-18.98 8.99 -18.98 8.99 -21 10 C-21.93423645 6.98968256 -22.04449911 6.13349732 -21 3 C-19.9790625 3.061875 -19.9790625 3.061875 -18.9375 3.125 C-12.17514601 2.83724026 -6.8548529 -0.12694172 0 0 Z " fill="#F4F8FA" transform="translate(123,457)"/>
<path d="M0 0 C3.10010489 0.10333683 5.74397785 0.45699508 8.75 1.125 C9.74 1.125 10.73 1.125 11.75 1.125 C13.08981486 1.4312434 14.42511887 1.75951555 15.75 2.125 C15.60546875 3.98046875 15.60546875 3.98046875 14.75 6.125 C12.23828125 7.42578125 12.23828125 7.42578125 9.0625 8.4375 C8.02738281 8.78425781 6.99226562 9.13101563 5.92578125 9.48828125 C2.47139521 10.18085803 0.1450852 10.00177953 -3.25 9.125 C-5.125 7.5625 -5.125 7.5625 -6.25 6.125 C-3.9527027 0.15202703 -3.9527027 0.15202703 0 0 Z " fill="#4C4C4F" transform="translate(133.25,690.875)"/>
<path d="M0 0 C1.7578125 1.04166667 3.515625 2.08333333 5.2734375 3.125 C6.97472667 4.15068348 6.97472667 4.15068348 9 4 C9.66 3.34 10.32 2.68 11 2 C12.70840281 3.63412443 13.93453047 4.86906094 15 7 C17.52733235 7.65555119 17.52733235 7.65555119 20 8 C19.01 8.495 19.01 8.495 18 9 C18 9.99 18 10.98 18 12 C18.66 11.34 19.32 10.68 20 10 C20.66 10.66 21.32 11.32 22 12 C21.34 12 20.68 12 20 12 C22.41337795 16.82675589 25.86062408 19.69984002 30 23 C29.34 23.33 28.68 23.66 28 24 C23.13456599 21.63448512 19.08268119 17.92708839 14.9375 14.5 C13.53048696 13.34309411 12.12295119 12.18682361 10.71484375 11.03125 C10.09730225 10.52142578 9.47976074 10.01160156 8.84350586 9.48632812 C8.23514893 8.99583984 7.62679199 8.50535156 7 8 C6.32525635 7.44248047 5.6505127 6.88496094 4.95532227 6.31054688 C2.97697797 4.72162155 2.97697797 4.72162155 0 5 C0 3.35 0 1.7 0 0 Z " fill="#494A4C" transform="translate(293,450)"/>
<path d="M0 0 C0.33 0.99 0.66 1.98 1 3 C1.66 3.33 2.32 3.66 3 4 C3 4.99 3 5.98 3 7 C0.14827038 7.98678898 -2.70604342 8.96456818 -5.5625 9.9375 C-6.36236328 10.21529297 -7.16222656 10.49308594 -7.98632812 10.77929688 C-12.67718736 12.3684451 -17.07243618 13.47747981 -22 14 C-22.66 13.01 -23.32 12.02 -24 11 C-23.0409375 10.5978125 -23.0409375 10.5978125 -22.0625 10.1875 C-19.66868314 9.11332248 -19.66868314 9.11332248 -19 6 C-18.67 6.99 -18.34 7.98 -18 9 C-15.48916886 7.74458443 -15.12874554 6.49936512 -14 4 C-12.68 4 -11.36 4 -10 4 C-10 4.99 -10 5.98 -10 7 C-9.34 7 -8.68 7 -8 7 C-8.33 6.01 -8.66 5.02 -9 4 C-7.68 3.67 -6.36 3.34 -5 3 C-5 3.66 -5 4.32 -5 5 C-3.35 3.35 -1.7 1.7 0 0 Z " fill="#F1F7FA" transform="translate(182,438)"/>
<path d="M0 0 C1.875 1.4375 1.875 1.4375 3 3 C3.66 3.66 4.32 4.32 5 5 C3 8 3 8 1.1875 8.51171875 C0.465625 8.56972656 -0.25625 8.62773438 -1 8.6875 C-1.79277344 8.75195312 -2.58554687 8.81640625 -3.40234375 8.8828125 C-7.60391754 9.07235718 -11.79553681 9.07899826 -16 9 C-13.7297514 2.66720128 -13.7297514 2.66720128 -10.8125 0 C-6.72285612 -1.4540956 -4.24418711 -0.95836483 0 0 Z " fill="#19A4E5" transform="translate(564,864)"/>
<path d="M0 0 C-0.2019043 1.86401367 -0.2019043 1.86401367 -1 4 C-3.06958008 5.2043457 -3.06958008 5.2043457 -5.76953125 6.17578125 C-6.74083984 6.52833984 -7.71214844 6.88089844 -8.71289062 7.24414062 C-9.73576172 7.59669922 -10.75863281 7.94925781 -11.8125 8.3125 C-13.3294043 8.8703418 -13.3294043 8.8703418 -14.87695312 9.43945312 C-23.29835064 12.42840915 -23.29835064 12.42840915 -27 11 C-27.99 10.34 -28.98 9.68 -30 9 C-22.41844138 5.66756527 -14.91736095 2.46606325 -7 0 C-3.86650268 -1.04449911 -3.01031744 -0.93423645 0 0 Z " fill="#47484A" transform="translate(203,674)"/>
<path d="M0 0 C3.25843255 1.00856246 6.16521215 2.08746526 9.1875 3.6875 C11.98686599 5.38645836 11.98686599 5.38645836 15 4 C15.66 4.66 16.32 5.32 17 6 C17.66 5.67 18.32 5.34 19 5 C19.66 5.66 20.32 6.32 21 7 C22.65261839 8.02304948 24.31791365 9.02616054 26 10 C25 12 25 12 23 15 C17.6462535 13.44347945 12.99849053 11.0182491 8.125 8.375 C7.34125 7.95476563 6.5575 7.53453125 5.75 7.1015625 C3.83107943 6.0718978 1.91522397 5.03652433 0 4 C0 2.68 0 1.36 0 0 Z " fill="#47484A" transform="translate(420,838)"/>
<path d="M0 0 C1.66666667 0 3.33333333 0 5 0 C4.67 0.99 4.34 1.98 4 3 C3.34 3 2.68 3 2 3 C1.34 4.98 0.68 6.96 0 9 C-0.928125 9.103125 -1.85625 9.20625 -2.8125 9.3125 C-6.03254358 10.0070192 -7.02579865 10.47740939 -9 13 C-9.33 12.34 -9.66 11.68 -10 11 C-10.598125 11.20625 -11.19625 11.4125 -11.8125 11.625 C-14 12 -14 12 -17 10 C-16.625 8.0625 -16.625 8.0625 -16 6 C-15.34 5.67 -14.68 5.34 -14 5 C-13.67 5.33 -13.34 5.66 -13 6 C-12.46375 5.71125 -11.9275 5.4225 -11.375 5.125 C-4.04347826 1.65217391 -4.04347826 1.65217391 0 3 C0 2.01 0 1.02 0 0 Z " fill="#0EA1E5" transform="translate(794,162)"/>
<path d="M0 0 C2 2 2 2 2 5 C2.94978897 7.15028304 2.94978897 7.15028304 4 9 C3.01 9.99 2.02 10.98 1 12 C0.34 11.34 -0.32 10.68 -1 10 C-1.99 10 -2.98 10 -4 10 C-5.33333333 9.66666667 -6.66666667 9.33333333 -8 9 C-8.99 9 -9.98 9 -11 9 C-10.34 6.69 -9.68 4.38 -9 2 C-9.66 1.67 -10.32 1.34 -11 1 C-6.91543861 -0.6148266 -4.23493122 -1.41164374 0 0 Z " fill="#4B4B4E" transform="translate(182,604)"/>
<path d="M0 0 C0.66 0.99 1.32 1.98 2 3 C1.195625 3.61875 0.39125 4.2375 -0.4375 4.875 C-3.03874519 6.74164041 -3.03874519 6.74164041 -4 9 C-4.99 9.33 -5.98 9.66 -7 10 C-7.45375 10.474375 -7.9075 10.94875 -8.375 11.4375 C-10.38576214 13.37092514 -12.39052205 14.0831564 -15 15 C-15.33 13.68 -15.66 12.36 -16 11 C-16.99 12.32 -17.98 13.64 -19 15 C-19.33 13.35 -19.66 11.7 -20 10 C-12.9452954 3.96061269 -12.9452954 3.96061269 -9 4.125 C-8.34 4.41375 -7.68 4.7025 -7 5 C-6.67 4.34 -6.34 3.68 -6 3 C-4.33333333 2.66666667 -2.66666667 2.33333333 -1 2 C-0.67 1.34 -0.34 0.68 0 0 Z " fill="#0FA1E5" transform="translate(645,685)"/>
<path d="M0 0 C4.99275057 1.27721526 7.57611908 3.17330957 11 7 C9.27951682 7.72917151 7.54810505 8.43259217 5.8125 9.125 C4.84957031 9.51945313 3.88664063 9.91390625 2.89453125 10.3203125 C-0.55920816 11.13131204 -1.93088247 10.68562932 -5 9 C-5.66 8.34 -6.32 7.68 -7 7 C-6.67 6.01 -6.34 5.02 -6 4 C-5.34 4 -4.68 4 -4 4 C-3.67 3.01 -3.34 2.02 -3 1 C-2.01 1.33 -1.02 1.66 0 2 C0 1.34 0 0.68 0 0 Z " fill="#4A4A4D" transform="translate(241,654)"/>
<path d="M0 0 C-0.99 1.485 -0.99 1.485 -2 3 C-0.68 3.33 0.64 3.66 2 4 C1.34 5.32 0.68 6.64 0 8 C-0.99 7.34 -1.98 6.68 -3 6 C-4.32 7.32 -5.64 8.64 -7 10 C-7.99 9.67 -8.98 9.34 -10 9 C-10.33 9.66 -10.66 10.32 -11 11 C-12.65 10.67 -14.3 10.34 -16 10 C-15.67 8.68 -15.34 7.36 -15 6 C-14.34 6 -13.68 6 -13 6 C-13 5.01 -13 4.02 -13 3 C-11.40084119 2.30093058 -9.79544955 1.61610532 -8.1875 0.9375 C-7.29417969 0.55464844 -6.40085938 0.17179688 -5.48046875 -0.22265625 C-3 -1 -3 -1 0 0 Z " fill="#48494C" transform="translate(135,620)"/>
<path d="M0 0 C-0.3125 3.375 -0.3125 3.375 -1 7 C-1.99 7.66 -2.98 8.32 -4 9 C-5.22266092 10.12972419 -5.22266092 10.12972419 -6.375 12.5 C-8 15 -8 15 -11 16 C-11.99 15.01 -12.98 14.02 -14 13 C-13.39816251 10.97954558 -12.72693904 8.97888961 -12 7 C-11.34 6.67 -10.68 6.34 -10 6 C-10.33 5.34 -10.66 4.68 -11 4 C-9.5437455 3.32880451 -8.08492133 2.66318193 -6.625 2 C-5.81289063 1.62875 -5.00078125 1.2575 -4.1640625 0.875 C-2 0 -2 0 0 0 Z " fill="#48484B" transform="translate(511,478)"/>
<path d="M0 0 C-0.45363171 1.58468677 -0.91311452 3.16769924 -1.375 4.75 C-1.63023437 5.63171875 -1.88546875 6.5134375 -2.1484375 7.421875 C-2.9209934 9.76080572 -3.83625676 11.83442562 -5 14 C-5.33 12.02 -5.66 10.04 -6 8 C-8.31 8.33 -10.62 8.66 -13 9 C-13 7.02 -13 5.04 -13 3 C-12.01 3 -11.02 3 -10 3 C-9.67 2.34 -9.34 1.68 -9 1 C-5.97869104 -0.07903891 -3.17870464 -0.03157654 0 0 Z " fill="#4B4B4E" transform="translate(564,714)"/>
<path d="M0 0 C3.22438783 2.54951595 6.10489296 4.98286261 8.6875 8.1875 C10.87671725 11.12754755 10.87671725 11.12754755 14 13 C14 13.66 14 14.32 14 15 C14.66 15 15.32 15 16 15 C17.5859375 16.64453125 17.5859375 16.64453125 19.375 18.8125 C21.23566282 21.06250857 22.86872703 22.90350285 25.2265625 24.63671875 C25.81179688 25.08660156 26.39703125 25.53648437 27 26 C27 26.66 27 27.32 27 28 C27.66 28.33 28.32 28.66 29 29 C27.35 29.33 25.7 29.66 24 30 C23.87625 29.1028125 23.87625 29.1028125 23.75 28.1875 C22.79451097 25.400657 21.3549152 24.67123014 19 23 C19 22.34 19 21.68 19 21 C18.19755859 20.68482422 18.19755859 20.68482422 17.37890625 20.36328125 C14.0769555 18.47103033 11.58736972 15.87638621 8.9375 13.1875 C8.40833984 12.66607422 7.87917969 12.14464844 7.33398438 11.60742188 C0 4.23662955 0 4.23662955 0 0 Z " fill="#4B4B4E" transform="translate(372,795)"/>
<path d="M0 0 C4.80516913 1.68096022 8.0487973 4.3070148 11.9140625 7.5390625 C13.98510067 9.28683411 13.98510067 9.28683411 17 9 C17.66 8.34 18.32 7.68 19 7 C19.33 8.32 19.66 9.64 20 11 C19.01 11.495 19.01 11.495 18 12 C18.99 12.66 19.98 13.32 21 14 C21 14.66 21 15.32 21 16 C21.66 16 22.32 16 23 16 C23 16.66 23 17.32 23 18 C24.32 18.33 25.64 18.66 27 19 C27 19.66 27 20.32 27 21 C22.57782727 20.1202336 19.73525941 17.66953142 16.3125 14.875 C15.06671016 13.87331983 13.82061597 12.87201806 12.57421875 11.87109375 C11.96755371 11.38108887 11.36088867 10.89108398 10.73583984 10.38623047 C7.70459402 7.96549717 4.58917895 5.65449853 1.4765625 3.33984375 C0.74566406 2.67662109 0.74566406 2.67662109 0 2 C0 1.34 0 0.68 0 0 Z " fill="#49494C" transform="translate(275,614)"/>
<path d="M0 0 C-8.41966813 3.77310937 -16.82001521 6.52444394 -25.75 8.8125 C-26.9359375 9.12380859 -28.121875 9.43511719 -29.34375 9.75585938 C-32.22725421 10.51161653 -35.11254257 11.25951931 -38 12 C-38.66 11.34 -39.32 10.68 -40 10 C-39.23445801 9.7733667 -38.46891602 9.5467334 -37.68017578 9.31323242 C-34.16172904 8.27150664 -30.64336402 7.22950511 -27.125 6.1875 C-25.92101562 5.83107422 -24.71703125 5.47464844 -23.4765625 5.10742188 C-22.290625 4.75615234 -21.1046875 4.40488281 -19.8828125 4.04296875 C-18.71524414 3.69927246 -17.54767578 3.35557617 -16.34472656 3.00146484 C-14.22080082 2.36552737 -12.10210546 1.71163043 -9.99121094 1.03369141 C-9.1046582 0.75058105 -8.21810547 0.4674707 -7.3046875 0.17578125 C-6.53882324 -0.07647217 -5.77295898 -0.32872559 -4.98388672 -0.58862305 C-3 -1 -3 -1 0 0 Z " fill="#F0F6F8" transform="translate(650,860)"/>
<path d="M0 0 C4.16943993 0.93599672 5.58410733 1.37616099 8 5 C8.66 5.66 9.32 6.32 10 7 C9.34 7 8.68 7 8 7 C8 7.99 8 8.98 8 10 C8.99 10.33 9.98 10.66 11 11 C10.67 11.66 10.34 12.32 10 13 C7.82482863 11.74210557 5.6606219 10.46994813 3.5 9.1875 C2.87996094 8.83107422 2.25992188 8.47464844 1.62109375 8.10742188 C0.0286112 7.15368233 -1.49246084 6.08302607 -3 5 C-3 4.01 -3 3.02 -3 2 C-2.01 1.34 -1.02 0.68 0 0 Z " fill="#47484B" transform="translate(95,672)"/>
<path d="M0 0 C0.99 0.66 1.98 1.32 3 2 C2.67 4.31 2.34 6.62 2 9 C1.01 9.33 0.02 9.66 -1 10 C-0.9175 10.7425 -0.835 11.485 -0.75 12.25 C-1.07105184 15.78157027 -2.35265617 16.76630364 -5 19 C-5.05447047 17.58376784 -5.09300508 16.16691809 -5.125 14.75 C-5.14820313 13.96109375 -5.17140625 13.1721875 -5.1953125 12.359375 C-4.98089462 9.769207 -4.23565655 8.25908202 -3 6 C-2.835 5.113125 -2.67 4.22625 -2.5 3.3125 C-2.335 2.549375 -2.17 1.78625 -2 1 C-1.34 0.67 -0.68 0.34 0 0 Z " fill="#0EA2E6" transform="translate(607,730)"/>
<path d="M0 0 C2.97 0.495 2.97 0.495 6 1 C6 1.99 6 2.98 6 4 C4.10614563 4.50744423 2.20981334 5.00564574 0.3125 5.5 C-0.74324219 5.7784375 -1.79898438 6.056875 -2.88671875 6.34375 C-5.71142672 6.9391715 -8.12836708 7.12786492 -11 7 C-6.25 2.125 -6.25 2.125 -4 1 C-4 1.66 -4 2.32 -4 3 C-3.01 3 -2.02 3 -1 3 C-0.67 2.01 -0.34 1.02 0 0 Z " fill="#10A0E2" transform="translate(199,494)"/>
<path d="M0 0 C2 1 4 2 6 3 C6.7425 3.28875 7.485 3.5775 8.25 3.875 C10.70233371 5.45150024 11.14270678 7.28523815 12 10 C8.81858133 10.46557346 6.74656877 10.50963377 4.04296875 8.6640625 C2.3064392 7.15741976 0.630282 5.62063536 -1 4 C-0.67 2.68 -0.34 1.36 0 0 Z " fill="#4B4B4E" transform="translate(319,649)"/>
<path d="M0 0 C6.11092279 2.77520655 12.31390155 7.73243695 15 14 C14.67 14.66 14.34 15.32 14 16 C12.38797778 14.78115393 10.78568423 13.54943515 9.1875 12.3125 C8.29417969 11.62800781 7.40085937 10.94351562 6.48046875 10.23828125 C3.10781497 7.19492595 1.42717577 4.2815273 0 0 Z " fill="#424245" transform="translate(325,476)"/>
<path d="M0 0 C0.53625 0.28875 1.0725 0.5775 1.625 0.875 C4.03692297 2.10068977 4.03692297 2.10068977 6.9375 2.8125 C10.59203397 4.22956419 12.47816665 6.03313724 15 9 C15 9.66 15 10.32 15 11 C16.9600281 12.63676257 16.9600281 12.63676257 19 14 C18.67 14.66 18.34 15.32 18 16 C15.18282931 13.7140265 12.37208862 11.42028343 9.5625 9.125 C8.76005859 8.47402344 7.95761719 7.82304687 7.13085938 7.15234375 C6.36708984 6.52714844 5.60332031 5.90195312 4.81640625 5.2578125 C4.10943604 4.6817627 3.40246582 4.10571289 2.67407227 3.51220703 C1 2 1 2 0 0 Z " fill="#464649" transform="translate(223,398)"/>
<path d="M0 0 C-0.99 1.485 -0.99 1.485 -2 3 C-2.66 3 -3.32 3 -4 3 C-4.33 3.99 -4.66 4.98 -5 6 C-6.65 6.33 -8.3 6.66 -10 7 C-10.33 6.34 -10.66 5.68 -11 5 C-11.928125 5.309375 -11.928125 5.309375 -12.875 5.625 C-13.57625 5.74875 -14.2775 5.8725 -15 6 C-15.66 5.34 -16.32 4.68 -17 4 C-14.54453034 3.13670227 -12.08621957 2.28410564 -9.625 1.4375 C-8.57699219 1.0672168 -8.57699219 1.0672168 -7.5078125 0.68945312 C-2.2265625 -1.11328125 -2.2265625 -1.11328125 0 0 Z " fill="#E5F1F8" transform="translate(183,505)"/>
<path d="M0 0 C-0.14095064 1.6254308 -0.28792087 3.25034051 -0.4375 4.875 C-0.51871094 5.77992187 -0.59992187 6.68484375 -0.68359375 7.6171875 C-1 10 -1 10 -2 12 C-2.38787256 14.20266316 -2.73709495 16.41224568 -3.0625 18.625 C-3.32740234 20.40777344 -3.32740234 20.40777344 -3.59765625 22.2265625 C-3.73042969 23.14179688 -3.86320313 24.05703125 -4 25 C-4.33 25 -4.66 25 -5 25 C-5.33 21.7 -5.66 18.4 -6 15 C-5.34 15 -4.68 15 -4 15 C-4.01160156 14.39671875 -4.02320313 13.7934375 -4.03515625 13.171875 C-4.04417969 12.37265625 -4.05320312 11.5734375 -4.0625 10.75 C-4.07410156 9.96109375 -4.08570313 9.1721875 -4.09765625 8.359375 C-4.00385306 6.09308998 -3.63241063 4.1711105 -3 2 C-3.66 1.67 -4.32 1.34 -5 1 C-2 0 -2 0 0 0 Z " fill="#2BA6DE" transform="translate(916,112)"/>
<path d="M0 0 C1.32 0.66 2.64 1.32 4 2 C4 4 4 4 2.5 5.625 C2.005 6.07875 1.51 6.5325 1 7 C1.99 7.33 2.98 7.66 4 8 C3.01 8.99 2.02 9.98 1 11 C0.34 10.34 -0.32 9.68 -1 9 C-2.98 9.99 -2.98 9.99 -5 11 C-5.33 9.68 -5.66 8.36 -6 7 C-5.01 6.21625 -4.02 5.4325 -3 4.625 C-1.515 3.325625 -1.515 3.325625 0 2 C0 1.34 0 0.68 0 0 Z " fill="#11A2E4" transform="translate(848,137)"/>
<path d="M0 0 C0.61875 0.804375 1.2375 1.60875 1.875 2.4375 C3.74164041 5.03874519 3.74164041 5.03874519 6 6 C6.625 8.5625 6.625 8.5625 7 11 C5.53932801 10.54917531 4.08151968 10.08906463 2.625 9.625 C1.40683594 9.24214844 1.40683594 9.24214844 0.1640625 8.8515625 C-2 8 -2 8 -4 6 C-3.01 5.34 -2.02 4.68 -1 4 C-0.27617533 1.94074861 -0.27617533 1.94074861 0 0 Z " fill="#4B4C4E" transform="translate(448,847)"/>
<path d="M0 0 C0.66 0.66 1.32 1.32 2 2 C1.8125 4.0625 1.8125 4.0625 1 6 C0.01 6.33 -0.98 6.66 -2 7 C-2.33 7.66 -2.66 8.32 -3 9 C-3.99 9 -4.98 9 -6 9 C-6.33 7.35 -6.66 5.7 -7 4 C-6.1028125 3.566875 -6.1028125 3.566875 -5.1875 3.125 C-2.80672208 1.95257974 -2.80672208 1.95257974 0 0 Z " fill="#0B94D4" transform="translate(652,832)"/>
<path d="M0 0 C2.5 1.375 2.5 1.375 5 3 C5 3.66 5 4.32 5 5 C1.49223216 6.60355101 -1.14354879 7.22036864 -5 7 C-5.33 6.01 -5.66 5.02 -6 4 C-4.02 2.68 -2.04 1.36 0 0 Z " fill="#1AA2E1" transform="translate(254,476)"/>
<path d="M0 0 C2.53731364 1.26865682 2.78646846 2.49709121 4 5 C4.66 5.66 5.32 6.32 6 7 C6 7.66 6 8.32 6 9 C6.31802943 10.66965451 6.64984951 12.33678518 7 14 C6.01 13.67 5.02 13.34 4 13 C3.6278958 11.67696283 3.29369827 10.34262065 3 9 C2.34 8.67 1.68 8.34 1 8 C1 7.01 1 6.02 1 5 C0.34 5.66 -0.32 6.32 -1 7 C-1.66 5.35 -2.32 3.7 -3 2 C-2.01 1.34 -1.02 0.68 0 0 Z " fill="#48494B" transform="translate(346,750)"/>
<path d="M0 0 C0 1.32 0 2.64 0 4 C-3 5 -3 5 -6 5 C-7.68798827 6.43750191 -7.68798827 6.43750191 -9 8 C-9 7.34 -9 6.68 -9 6 C-10.32 5.34 -11.64 4.68 -13 4 C-11.2097939 3.32942113 -9.41778511 2.6636531 -7.625 2 C-6.62726562 1.62875 -5.62953125 1.2575 -4.6015625 0.875 C-2 0 -2 0 0 0 Z " fill="#21A3DF" transform="translate(903,117)"/>
<path d="M0 0 C2.31 0.33 4.62 0.66 7 1 C6.34 2.32 5.68 3.64 5 5 C2.36 5 -0.28 5 -3 5 C-2.01 3.35 -1.02 1.7 0 0 Z " fill="#464749" transform="translate(337,747)"/>
<path d="M0 0 C0 0.66 0 1.32 0 2 C0.99 2.66 1.98 3.32 3 4 C-1.62 4 -6.24 4 -11 4 C-5 0 -5 0 0 0 Z " fill="#444547" transform="translate(215,749)"/>
<path d="M0 0 C-0.3125 3.375 -0.3125 3.375 -1 7 C-1.99 7.66 -2.98 8.32 -4 9 C-4.185625 7.824375 -4.185625 7.824375 -4.375 6.625 C-4.79117993 3.85942178 -4.79117993 3.85942178 -7 2 C-2.25 0 -2.25 0 0 0 Z " fill="#555558" transform="translate(511,478)"/>
<path d="M0 0 C0 0.99 0 1.98 0 3 C-4.75 3.125 -4.75 3.125 -7 2 C-9.00800456 2.28112064 -11.01014051 2.61067967 -13 3 C-9.19777044 -0.80222956 -5.07002404 -1.49118354 0 0 Z " fill="#4A4B4D" transform="translate(415,476)"/>
<path d="M0 0 C1 3 1 3 0 7 C-2.97 6.67 -5.94 6.34 -9 6 C-9 5.34 -9 4.68 -9 4 C-6.03 3.34 -3.06 2.68 0 2 C0 1.34 0 0.68 0 0 Z " fill="#4A4A4D" transform="translate(489,444)"/>
<path d="M0 0 C3.81684226 1.55500981 6.19195732 4.03595495 9 7 C7.35 7.33 5.7 7.66 4 8 C2.3372974 5.32521756 1.00016187 3.0004856 0 0 Z " fill="#4A4A4D" transform="translate(325,476)"/>
<path d="M0 0 C0 1.32 0 2.64 0 4 C-3.3 3.67 -6.6 3.34 -10 3 C-6.84916414 -0.15083586 -4.41812253 0 0 0 Z " fill="#20A2DF" transform="translate(913,114)"/>
<path d="M0 0 C2.0625 2.3125 2.0625 2.3125 4 5 C3.67 5.99 3.34 6.98 3 8 C1.02 6.68 -0.96 5.36 -3 4 C-2.01 2.68 -1.02 1.36 0 0 Z " fill="#47484A" transform="translate(496,689)"/>
<path d="M0 0 C-1.65 1.65 -3.3 3.3 -5 5 C-5.66 4.34 -6.32 3.68 -7 3 C-6.67 2.67 -6.34 2.34 -6 2 C-6.66 1.34 -7.32 0.68 -8 0 C-4.71023192 -1.09658936 -3.28696233 -0.79953138 0 0 Z " fill="#E4F1F7" transform="translate(167,511)"/>
<path d="M0 0 C0.8353125 0.556875 0.8353125 0.556875 1.6875 1.125 C-0.48663762 3.29913762 -1.37803116 3.59146021 -4.3125 4.125 C-5.3025 4.125 -6.2925 4.125 -7.3125 4.125 C-7.3125 3.135 -7.3125 2.145 -7.3125 1.125 C-2.88173077 -1.09038462 -2.88173077 -1.09038462 0 0 Z " fill="#47484B" transform="translate(510.3125,277.875)"/>
<path d="M0 0 C-3.72965139 2.03435531 -5.66905042 3 -10 3 C-9.67 2.01 -9.34 1.02 -9 0 C-5.62182575 -0.84454356 -3.32534757 -1.10844919 0 0 Z " fill="#3B3B3E" transform="translate(396,485)"/>
<path d="M0 0 C3.34249629 0.59687434 5.46436342 1.73603877 8 4 C8 4.66 8 5.32 8 6 C8.66 6 9.32 6 10 6 C9.67 6.66 9.34 7.32 9 8 C7.49712782 6.85793642 5.99776716 5.71125043 4.5 4.5625 C3.6646875 3.92441406 2.829375 3.28632812 1.96875 2.62890625 C1.3190625 2.09136719 0.669375 1.55382812 0 1 C0 0.67 0 0.34 0 0 Z " fill="#49494C" transform="translate(257,601)"/>
<path d="M0 0 C1.36125 0.12375 1.36125 0.12375 2.75 0.25 C2.42 0.91 2.09 1.57 1.75 2.25 C-0.31640625 2.8828125 -0.31640625 2.8828125 -2.8125 3.375 C-4.05193359 3.62636719 -4.05193359 3.62636719 -5.31640625 3.8828125 C-5.95449219 4.00398437 -6.59257812 4.12515625 -7.25 4.25 C-4.83923194 1.28290085 -3.90322061 0.30024774 0 0 Z " fill="#3D3E40" transform="translate(197.25,676.75)"/>
<path d="M0 0 C2.5 1.375 2.5 1.375 5 3 C5 3.66 5 4.32 5 5 C5.66 5 6.32 5 7 5 C7 5.66 7 6.32 7 7 C6.01 7.33 5.02 7.66 4 8 C3.566875 7.0409375 3.566875 7.0409375 3.125 6.0625 C2.17176549 3.84793921 2.17176549 3.84793921 0 3 C0 2.01 0 1.02 0 0 Z " fill="#4B4B4E" transform="translate(250,594)"/>
<path d="M0 0 C2.86724686 0.57344937 3.8614515 0.8614515 6 3 C3.03 3.66 0.06 4.32 -3 5 C-2.01 3.35 -1.02 1.7 0 0 Z " fill="#E5F2F8" transform="translate(115,462)"/>
<path d="M0 0 C-0.33 3.3 -0.66 6.6 -1 10 C-3 6 -3 6 -3 2 C-3.66 1.67 -4.32 1.34 -5 1 C-2 0 -2 0 0 0 Z " fill="#44ACDF" transform="translate(916,112)"/>
<path d="M0 0 C2.375 0.25 2.375 0.25 5 1 C6.3125 3.0625 6.3125 3.0625 7 5 C6.01 5 5.02 5 4 5 C1.8125 2.5 1.8125 2.5 0 0 Z " fill="#404043" transform="translate(319,652)"/>
<path d="M0 0 C0.33 0 0.66 0 1 0 C1.25 6.625 1.25 6.625 -1 10 C-2.25556424 6.09380015 -1.81588958 3.63177916 0 0 Z " fill="#2F3032" transform="translate(531,340)"/>
<path d="M0 0 C0.99 0.33 1.98 0.66 3 1 C1.515 3.475 1.515 3.475 0 6 C-0.99 5.34 -1.98 4.68 -3 4 C-3 3.34 -3 2.68 -3 2 C-2.01 1.34 -1.02 0.68 0 0 Z " fill="#4D4D50" transform="translate(95,672)"/>
<path d="M0 0 C0.99 0.33 1.98 0.66 3 1 C3 1.99 3 2.98 3 4 C1.02 4.33 -0.96 4.66 -3 5 C-1.125 1.125 -1.125 1.125 0 0 Z " fill="#25A4E0" transform="translate(202,494)"/>
<path d="M0 0 C0.33 0.99 0.66 1.98 1 3 C-3.625 5.125 -3.625 5.125 -7 4 C-2.25 0 -2.25 0 0 0 Z " fill="#23A4E0" transform="translate(635,689)"/>
<path d="M0 0 C0.66 1.32 1.32 2.64 2 4 C-0.31 4.66 -2.62 5.32 -5 6 C-5 5.34 -5 4.68 -5 4 C-4.34 4 -3.68 4 -3 4 C-2.67 3.01 -2.34 2.02 -2 1 C-1.34 0.67 -0.68 0.34 0 0 Z " fill="#49494C" transform="translate(283,568)"/>
<path d="M0 0 C0.66 0.66 1.32 1.32 2 2 C-2.43076923 5.07692308 -2.43076923 5.07692308 -5.3125 4.6875 C-5.869375 4.460625 -6.42625 4.23375 -7 4 C-5 2 -5 2 -3 1 C-2.01 1.33 -1.02 1.66 0 2 C0 1.34 0 0.68 0 0 Z " fill="#FDFDFD" transform="translate(171,509)"/>
</svg>
