<?xml version="1.0" encoding="UTF-8"?>
<svg version="1.1" xmlns="http://www.w3.org/2000/svg" width="256" height="256">
<path d="M0 0 C84.48 0 168.96 0 256 0 C256 84.48 256 168.96 256 256 C171.52 256 87.04 256 0 256 C0 171.52 0 87.04 0 0 Z " fill="#FEFEFE" transform="translate(0,0)"/>
<path d="M0 0 C-1.56422843 11.09262717 -3.20932929 22.17223753 -4.875 33.25 C-5.00727997 34.12983551 -5.13955994 35.00967102 -5.27584839 35.91616821 C-5.94164116 40.34284593 -6.60830686 44.76939104 -7.27587891 49.19580078 C-7.71429653 52.10284465 -8.15145301 55.01006442 -8.58740234 57.91748047 C-10.64340103 71.62349242 -12.88039985 85.28616856 -15.28540039 98.93554688 C-16.34791958 105.01274404 -17.30582836 111.05783346 -18 117.1875 C-20.15458669 134.14745764 -25.7756292 150.85602185 -37 164 C-37.65613281 164.81082031 -38.31226563 165.62164062 -38.98828125 166.45703125 C-44.2925226 172.74109694 -49.8370914 177.00923664 -57 181 C-58.16789062 181.69222656 -58.16789062 181.69222656 -59.359375 182.3984375 C-64.41514821 185.19777502 -69.55871961 186.87577097 -75.125 188.3125 C-76.11052856 188.57003052 -76.11052856 188.57003052 -77.1159668 188.83276367 C-81.87158107 189.97161596 -86.15145208 190.14578039 -91 190 C-90.42703434 184.62670013 -89.10694603 180.07537325 -87.125 175.0625 C-86.86847656 174.39798828 -86.61195313 173.73347656 -86.34765625 173.04882812 C-85.82924193 171.70590058 -85.30832362 170.36393699 -84.78491211 169.02294922 C-83.07444098 164.61456235 -81.42604637 160.18330486 -79.82421875 155.734375 C-77.48385661 149.58991908 -75.96433002 146.23067876 -70 143 C-61.792422 134.792422 -59.2055296 124.09751156 -57.5 112.9375 C-57.29769775 111.69379639 -57.09539551 110.45009277 -56.88696289 109.16870117 C-56.23607519 105.11552581 -55.61208201 101.05916981 -55 97 C-54.89451843 96.3025769 -54.78903687 95.60515381 -54.68035889 94.88659668 C-53.38286279 86.29065423 -52.12626128 77.68893177 -50.88243103 69.08508301 C-49.47721716 59.37256909 -48.02731538 49.66905187 -46.46191406 39.98095703 C-45.99208812 36.94894079 -45.58377982 33.91249701 -45.1796875 30.87109375 C-44.89225846 28.95548336 -44.60327345 27.04010559 -44.3125 25.125 C-44.16252563 23.82212036 -44.16252563 23.82212036 -44.00952148 22.49291992 C-43.08480287 16.83920283 -43.08480287 16.83920283 -40.40942383 14.76953125 C-37.98562595 13.6515189 -35.53601705 12.8352393 -33 12 C-31.14266335 11.26923223 -29.28559467 10.5376984 -27.43345642 9.79385376 C-24.69291476 8.69742215 -21.9396916 7.63489656 -19.1862793 6.57128906 C-17.04118038 5.74175547 -14.89848948 4.90619915 -12.75585938 4.0703125 C-11.39076565 3.54130357 -10.02553624 3.01264462 -8.66015625 2.484375 C-8.02062515 2.23443787 -7.38109406 1.98450073 -6.72218323 1.72698975 C-2.22924811 0 -2.22924811 0 0 0 Z " fill="#079CDC" transform="translate(229,28)"/>
<path d="M0 0 C0.27645962 6.22034137 -0.81707252 11.90842471 -2 18 C-5.64833374 36.11204147 -5.64833374 36.11204147 0 53 C2.50012187 56.1785086 4.7535512 56.58583724 8.6875 57.1875 C9.68136719 57.34605469 10.67523438 57.50460938 11.69921875 57.66796875 C12.45847656 57.77753906 13.21773438 57.88710937 14 58 C12.48210216 64.15208594 10.74112025 69.88239933 8.03515625 75.61328125 C6.82591822 78.40137346 5.91758966 81.22829539 5 84.125 C3.47617112 88.85370709 1.66298643 92.81530704 -1 97 C-14.40398748 95.76402023 -24.87846425 91.09568035 -34 81 C-36.67144701 77.1643645 -38.91194265 73.1761147 -41 69 C-51.89 68.67 -62.78 68.34 -74 68 C-72.55972209 65.11944418 -70.77772704 64.95839805 -67.79296875 63.8359375 C-66.73142578 63.43632812 -65.66988281 63.03671875 -64.57617188 62.625 C-63.45791016 62.2125 -62.33964844 61.8 -61.1875 61.375 C-60.08083984 60.95476562 -58.97417969 60.53453125 -57.83398438 60.1015625 C-49.51112267 57 -49.51112267 57 -45 57 C-44.21222304 52.56570909 -44.42975496 49.23966162 -46 45 C-51.65172293 38.44495586 -59.28914978 33.34502594 -66.55078125 28.71875 C-67.35902344 28.1515625 -68.16726562 27.584375 -69 27 C-69 26.34 -69 25.68 -69 25 C-67.98095078 24.61868927 -67.98095078 24.61868927 -66.9413147 24.22967529 C-60.49833674 21.81859482 -54.05576777 19.40642442 -47.61364174 16.9930687 C-44.30270652 15.75276545 -40.99162166 14.51286506 -37.68017578 13.27392578 C-33.86183866 11.84531792 -30.04418729 10.41488534 -26.2265625 8.984375 C-25.05324371 8.54567078 -23.87992493 8.10696655 -22.67105103 7.65496826 C-16.74245232 5.43184366 -10.85043023 3.15954144 -5.01547241 0.69976807 C-3 0 -3 0 0 0 Z " fill="#414243" transform="translate(127,120)"/>
<path d="M0 0 C0.19697564 6.54615704 -0.45834332 12.30973533 -1.875 18.6875 C-3.40346483 25.89350351 -4.67540289 33.03751244 -5.60546875 40.34765625 C-6 43 -6 43 -7 46 C-9.58839387 47.03965109 -12.08574213 47.89101829 -14.75 48.6875 C-23.02215575 51.27413103 -31.06915212 54.27026228 -39.09277344 57.54760742 C-40.35782715 58.04804565 -40.35782715 58.04804565 -41.6484375 58.55859375 C-42.39270996 58.86079834 -43.13698242 59.16300293 -43.90380859 59.47436523 C-46.36953986 60.09266472 -47.63395646 59.88113885 -50 59 C-51.98727448 57.63213574 -53.91821324 56.18148466 -55.8125 54.6875 C-56.37001953 54.25034668 -56.92753906 53.81319336 -57.50195312 53.36279297 C-59.34103375 51.9164221 -61.17121463 50.45936227 -63 49 C-63.65661621 48.47776855 -64.31323242 47.95553711 -64.98974609 47.41748047 C-68.79979162 44.38582145 -72.60532685 41.34866475 -76.390625 38.28613281 C-77.88679151 37.09047062 -79.4111779 35.93035718 -80.9375 34.7734375 C-81.618125 34.18820313 -82.29875 33.60296875 -83 33 C-83 32.34 -83 31.68 -83 31 C-80.27095952 29.93717503 -77.54176908 28.87473768 -74.8125 27.8125 C-74.06291016 27.52052734 -73.31332031 27.22855469 -72.54101562 26.92773438 C-68.12854774 25.21074896 -63.71258953 23.50317865 -59.29296875 21.8046875 C-50.3562637 18.37021219 -41.42580293 14.91957365 -32.49511719 11.46948242 C-29.47862442 10.30424284 -26.46196883 9.13942544 -23.4453125 7.97460938 C-21.51561498 7.22919261 -19.58592713 6.48375081 -17.65625 5.73828125 C-16.76039185 5.39243484 -15.86453369 5.04658844 -14.94152832 4.69026184 C-14.10295288 4.36619858 -13.26437744 4.04213531 -12.40039062 3.70825195 C-11.62606689 3.4099649 -10.85174316 3.11167786 -10.05395508 2.80435181 C-8.38670914 2.15143963 -6.73301675 1.4639931 -5.08398438 0.76635742 C-3 0 -3 0 0 0 Z " fill="#404242" transform="translate(136,65)"/>
<path d="M0 0 C2.04634701 1.37071885 4.04258816 2.81752671 6 4.3125 C7.03125 5.09238281 8.0625 5.87226563 9.125 6.67578125 C11.59076721 8.66916643 13.81670066 10.70648603 16 13 C9.6674537 15.63389094 3.28820886 17.9616201 -3.23828125 20.0703125 C-5.99526901 20.93746206 -5.99526901 20.93746206 -8.48046875 22.1796875 C-12.419795 23.46225884 -15.26941399 22.86507738 -18.95947266 21.02050781 C-21.11969896 19.78076085 -23.2170387 18.47112892 -25.3125 17.125 C-26.04017578 16.67769531 -26.76785156 16.23039062 -27.51757812 15.76953125 C-32.87106454 12.38680638 -32.87106454 12.38680638 -34 9 C-32.83984375 8.61328125 -31.6796875 8.2265625 -30.484375 7.828125 C-29.7330127 7.57748291 -28.98165039 7.32684082 -28.20751953 7.06860352 C-26.56311722 6.52085059 -24.91825599 5.97447352 -23.27294922 5.42944336 C-19.59405167 4.20905028 -15.92595482 2.97368835 -12.2734375 1.67578125 C-11.23445313 1.30839844 -10.19546875 0.94101563 -9.125 0.5625 C-8.22007813 0.23378906 -7.31515625 -0.09492188 -6.3828125 -0.43359375 C-3.6451015 -1.08436112 -2.58277189 -1.09006722 0 0 Z " fill="#424345" transform="translate(47,152)"/>
<path d="M0 0 C1.87890625 1.20703125 1.87890625 1.20703125 3.5625 2.8125 C5.49023576 4.60133777 7.29471272 6.21158862 9.4375 7.75 C9.953125 8.1625 10.46875 8.575 11 9 C11 9.66 11 10.32 11 11 C10.38479492 11.17128418 9.76958984 11.34256836 9.13574219 11.51904297 C6.33930366 12.3001681 3.54465407 13.08751556 0.75 13.875 C-0.21808594 14.14441406 -1.18617187 14.41382812 -2.18359375 14.69140625 C-3.11816406 14.95566406 -4.05273438 15.21992187 -5.015625 15.4921875 C-5.87446289 15.73308105 -6.73330078 15.97397461 -7.61816406 16.22216797 C-10.00922933 16.93230911 -10.00922933 16.93230911 -12.13134766 18.10229492 C-15.04617913 19.50258697 -16.93894463 18.8554077 -20 18 C-22.9921875 16.22265625 -22.9921875 16.22265625 -25.875 14.0625 C-26.84179688 13.35222656 -27.80859375 12.64195313 -28.8046875 11.91015625 C-29.52914063 11.27980469 -30.25359375 10.64945313 -31 10 C-31 9.34 -31 8.68 -31 8 C-26.77442007 6.65511116 -22.54400264 5.3261247 -18.3125 4 C-17.11431641 3.6184375 -15.91613281 3.236875 -14.68164062 2.84375 C-13.52470703 2.4828125 -12.36777344 2.121875 -11.17578125 1.75 C-9.58117065 1.24726562 -9.58117065 1.24726562 -7.9543457 0.734375 C-5.13575631 0.03374556 -2.8858069 -0.23901048 0 0 Z " fill="#0D9CDC" transform="translate(53,110)"/>
<path d="M0 0 C-0.66 4.62 -1.32 9.24 -2 14 C-2.66 13.01 -3.32 12.02 -4 11 C-5.64694485 9.31384218 -7.31126121 7.64429829 -9 6 C-12.16115776 7.36983503 -12.9927092 7.9890638 -15 11 C-14.34 11 -13.68 11 -13 11 C-13 11.66 -13 12.32 -13 13 C-17.571279 12.45144652 -21.67435795 11.58255197 -26 10 C-23.33983676 8.22655784 -21.14158531 7.18279443 -18.18359375 6.0546875 C-17.25482422 5.70019531 -16.32605469 5.34570312 -15.36914062 4.98046875 C-14.40169922 4.61566406 -13.43425781 4.25085937 -12.4375 3.875 C-11.46619141 3.50246094 -10.49488281 3.12992188 -9.49414062 2.74609375 C-2.25672505 0 -2.25672505 0 0 0 Z " fill="#22A6E2" transform="translate(229,28)"/>
<path d="M0 0 C0 0.66 0 1.32 0 2 C5.96674616 3.32594359 11.92583615 3.0884587 18 3 C18.495 4.98 18.495 4.98 19 7 C18.01 7.33 17.02 7.66 16 8 C15.505 7.01 15.505 7.01 15 6 C4.11 5.67 -6.78 5.34 -18 5 C-16.25544489 1.51088978 -12.3370448 0.99759328 -8.8125 -0.24609375 C-5.55239311 -1.11998351 -3.21348161 -1.04221025 0 0 Z " fill="#46474A" transform="translate(71,183)"/>
<path d="M0 0 C0.99 0 1.98 0 3 0 C3.05422947 1.4370809 3.09289723 2.87475462 3.125 4.3125 C3.14820313 5.11300781 3.17140625 5.91351563 3.1953125 6.73828125 C3 9 3 9 1 12 C0.34 12 -0.32 12 -1 12 C-1 11.01 -1 10.02 -1 9 C-4.3 8.67 -7.6 8.34 -11 8 C-11 7.34 -11 6.68 -11 6 C-11.66 5.67 -12.32 5.34 -13 5 C-12.14535156 4.72285156 -11.29070312 4.44570312 -10.41015625 4.16015625 C-9.30542969 3.79792969 -8.20070313 3.43570313 -7.0625 3.0625 C-5.96035156 2.70285156 -4.85820312 2.34320313 -3.72265625 1.97265625 C-1.11876525 1.26143332 -1.11876525 1.26143332 0 0 Z " fill="#505154" transform="translate(133,65)"/>
<path d="M0 0 C-0.33 1.65 -0.66 3.3 -1 5 C-3.97 5.66 -6.94 6.32 -10 7 C-9.34 8.32 -8.68 9.64 -8 11 C-8.99 11.33 -9.98 11.66 -11 12 C-12.82421875 11.07421875 -12.82421875 11.07421875 -14.6875 9.6875 C-15.62142578 9.01267578 -15.62142578 9.01267578 -16.57421875 8.32421875 C-17.04472656 7.88722656 -17.51523437 7.45023438 -18 7 C-18 6.34 -18 5.68 -18 5 C-15.37831689 3.96983978 -12.75326119 2.95061606 -10.125 1.9375 C-9.37863281 1.64294922 -8.63226563 1.34839844 -7.86328125 1.04492188 C-2.2265625 -1.11328125 -2.2265625 -1.11328125 0 0 Z " fill="#545658" transform="translate(76,140)"/>
<path d="M0 0 C-0.33 0.99 -0.66 1.98 -1 3 C0.32 3.66 1.64 4.32 3 5 C1.02 6.32 -0.96 7.64 -3 9 C-4.69270833 8.0234375 -6.38541667 7.046875 -8.078125 6.0703125 C-10.02513657 4.98600118 -11.99989709 3.98235143 -14 3 C-12.42274653 2.29866401 -10.83788667 1.614417 -9.25 0.9375 C-7.92742187 0.36322266 -7.92742187 0.36322266 -6.578125 -0.22265625 C-3.84743691 -1.04600008 -2.63098653 -0.9773992 0 0 Z " fill="#18A3E1" transform="translate(202,40)"/>
<path d="M0 0 C0.99 0.33 1.98 0.66 3 1 C2.35096 4.50481599 0.87822891 6.99483374 -1 10 C-1.2475 10.7425 -1.495 11.485 -1.75 12.25 C-3 14 -3 14 -6.625 14.75 C-7.73875 14.8325 -8.8525 14.915 -10 15 C-10.33 14.34 -10.66 13.68 -11 13 C-10.45730469 12.56429687 -9.91460937 12.12859375 -9.35546875 11.6796875 C-5.09840925 8.1359731 -2.06370485 5.28824368 0 0 Z " fill="#20A6E2" transform="translate(166,161)"/>
<path d="M0 0 C0 1.98 0 3.96 0 6 C-2.91708924 7.98362069 -4.12380904 7.9876191 -7.75 7.625 C-8.8225 7.41875 -9.895 7.2125 -11 7 C-11.33 6.01 -11.66 5.02 -12 4 C-10.3767313 3.3291288 -8.75132422 2.66342971 -7.125 2 C-6.22007813 1.62875 -5.31515625 1.2575 -4.3828125 0.875 C-2 0 -2 0 0 0 Z " fill="#4F5153" transform="translate(114,73)"/>
<path d="M0 0 C5.22267035 0.66202864 7.82661889 3.06230637 11.71875 6.40625 C14.19739442 8.13790569 16.02706772 8.62314943 19 9 C18.34 9.66 17.68 10.32 17 11 C12.01103713 10.76680485 9.06623541 9.01575634 5.125 6.0625 C4.15820312 5.35222656 3.19140625 4.64195313 2.1953125 3.91015625 C1.47085937 3.27980469 0.74640625 2.64945312 0 2 C0 1.34 0 0.68 0 0 Z " fill="#27A8E2" transform="translate(22,118)"/>
<path d="M0 0 C2.25 2.0625 2.25 2.0625 4 4 C3.34 4.66 2.68 5.32 2 6 C-2.75 4.125 -2.75 4.125 -5 3 C-5 2.34 -5 1.68 -5 1 C-5.99 0.67 -6.98 0.34 -8 0 C-4.95161632 -0.97983761 -2.99581086 -1.21704816 0 0 Z " fill="#4C4D50" transform="translate(47,152)"/>
<path d="M0 0 C0.33 0.99 0.66 1.98 1 3 C1.66 3 2.32 3 3 3 C2.38461538 10.50769231 2.38461538 10.50769231 0.4375 13 C-0.036875 13.33 -0.51125 13.66 -1 14 C-2.13732426 10.59598052 -1.83989957 8.22543336 -1.0625 4.75 C-0.86785156 3.85796875 -0.67320312 2.9659375 -0.47265625 2.046875 C-0.31667969 1.37140625 -0.16070312 0.6959375 0 0 Z " fill="#29A9E2" transform="translate(186,49)"/>
<path d="M0 0 C0.66 0.33 1.32 0.66 2 1 C1.34 1.66 0.68 2.32 0 3 C0 3.99 0 4.98 0 6 C-4.00200378 7.60080151 -7.04556236 6.29279692 -11 5 C-7.41161963 3.13404221 -3.77010767 1.46615298 0 0 Z " fill="#57585B" transform="translate(36,153)"/>
<path d="M0 0 C0.33 0.66 0.66 1.32 1 2 C1.66 2 2.32 2 3 2 C2.67 4.31 2.34 6.62 2 9 C0.35 9.33 -1.3 9.66 -3 10 C-2.01 6.7 -1.02 3.4 0 0 Z " fill="#27A8E2" transform="translate(151,179)"/>
<path d="M0 0 C0 2.31 0 4.62 0 7 C-5.875 5.125 -5.875 5.125 -7 4 C-8.32594105 3.63837971 -9.65938457 3.30271961 -11 3 C-9.73160474 2.49384702 -8.46016898 1.99530901 -7.1875 1.5 C-6.12595703 1.08234375 -6.12595703 1.08234375 -5.04296875 0.65625 C-3 0 -3 0 0 0 Z " fill="#636467" transform="translate(127,120)"/>
<path d="M0 0 C0 1.32 0 2.64 0 4 C-2.52053595 5.26026798 -3.8542098 4.91874445 -6.625 4.5625 C-7.85089844 4.40974609 -7.85089844 4.40974609 -9.1015625 4.25390625 C-10.04128906 4.12822266 -10.04128906 4.12822266 -11 4 C-7.32740617 1.55160412 -4.45351799 0 0 0 Z " fill="#505153" transform="translate(74,89)"/>
<path d="M0 0 C-0.33 0.66 -0.66 1.32 -1 2 C-0.34 2.66 0.32 3.32 1 4 C-2.96 4 -6.92 4 -11 4 C-9.71264403 1.42528807 -8.71510189 1.29583343 -6.0625 0.3125 C-5.35222656 0.04050781 -4.64195313 -0.23148438 -3.91015625 -0.51171875 C-2 -1 -2 -1 0 0 Z " fill="#606164" transform="translate(64,184)"/>
<path d="M0 0 C3.3 0 6.6 0 10 0 C9.34 1.32 8.68 2.64 8 4 C5.69 3.67 3.38 3.34 1 3 C0.67 2.01 0.34 1.02 0 0 Z " fill="#535456" transform="translate(131,178)"/>
<path d="M0 0 C0.33 0 0.66 0 1 0 C1 2.31 1 4.62 1 7 C1.99 7 2.98 7 4 7 C2.66666667 9.66666667 1.33333333 12.33333333 0 15 C-1.2063366 9.77254141 -0.75612577 5.23471686 0 0 Z " fill="#23A7E1" transform="translate(181,78)"/>
<path d="M0 0 C4 4.625 4 4.625 4 8 C3.01 8.495 3.01 8.495 2 9 C1.01 8.34 0.02 7.68 -1 7 C-0.67 4.69 -0.34 2.38 0 0 Z " fill="#555659" transform="translate(123,168)"/>
<path d="M0 0 C-0.75 1.9375 -0.75 1.9375 -2 4 C-4.125 4.75 -4.125 4.75 -6 5 C-6.66 3.68 -7.32 2.36 -8 1 C-2.25 -1.125 -2.25 -1.125 0 0 Z " fill="#626366" transform="translate(21,160)"/>
<path d="M0 0 C-0.33 0.99 -0.66 1.98 -1 3 C-3.8125 3.625 -3.8125 3.625 -7 4 C-7.99 3.34 -8.98 2.68 -10 2 C-8.71211992 1.46987262 -7.41953322 0.9511671 -6.125 0.4375 C-5.40570313 0.14746094 -4.68640625 -0.14257812 -3.9453125 -0.44140625 C-2 -1 -2 -1 0 0 Z " fill="#595B5D" transform="translate(91,83)"/>
<path d="M0 0 C2.375 0.25 2.375 0.25 5 1 C6.3125 3.0625 6.3125 3.0625 7 5 C6.34 5.66 5.68 6.32 5 7 C3.29115995 5.37660195 1.62553283 3.70680947 0 2 C0 1.34 0 0.68 0 0 Z " fill="#525356" transform="translate(93,199)"/>
<path d="M0 0 C0.66 0.33 1.32 0.66 2 1 C1.01 2.98 0.02 4.96 -1 7 C-3 5.625 -3 5.625 -5 4 C-5 3.34 -5 2.68 -5 2 C-2.625 0.9375 -2.625 0.9375 0 0 Z " fill="#5F6063" transform="translate(58,94)"/>
<path d="M0 0 C2.4375 0.6875 2.4375 0.6875 5 2 C5.8125 4.625 5.8125 4.625 6 7 C3.69 5.35 1.38 3.7 -1 2 C-0.67 1.34 -0.34 0.68 0 0 Z " fill="#56585A" transform="translate(74,112)"/>
<path d="M0 0 C3.25696479 0.41755959 4.63443291 0.63443291 7 3 C7 3.66 7 4.32 7 5 C1.25 3.25 1.25 3.25 -1 1 C-0.67 0.67 -0.34 0.34 0 0 Z " fill="#57585B" transform="translate(108,210)"/>
<path d="M0 0 C2.875 0.3125 2.875 0.3125 6 1 C6.66 1.99 7.32 2.98 8 4 C7.34 4.66 6.68 5.32 6 6 C3.97945196 4.35830472 1.97956942 2.69088222 0 1 C0 0.67 0 0.34 0 0 Z " fill="#5A5B5E" transform="translate(59,102)"/>
<path d="M0 0 C2.96175123 0.61277612 4.38058783 1.25372522 7 3 C6.67 3.66 6.34 4.32 6 5 C4.125 4.75 4.125 4.75 2 4 C0.75 1.9375 0.75 1.9375 0 0 Z " fill="#484A4C" transform="translate(126,175)"/>
<path d="M0 0 C2.72869407 0.03287583 5.2966618 0.56397771 8 1 C5.24075815 2.80411967 4.11027897 3.0127245 0.75 2.625 C-0.1575 2.41875 -1.065 2.2125 -2 2 C-1.34 1.34 -0.68 0.68 0 0 Z " fill="#606164" transform="translate(32,172)"/>
</svg>
